<svg xmlns="http://www.w3.org/2000/svg" viewBox="0 0 24.91 24.91"><defs><style>.cls-1{fill:#ed1b2e;}.cls-2{fill:#231f20;}.cls-3{fill:#fff;}.cls-4{fill:none;}</style></defs><title>brown</title><g id="Layer_2" data-name="Layer 2"><g id="Layer_1-2" data-name="Layer 1"><path class="cls-1" d="M11.37,24.31l.92.23.91-.23V17.17h5.85V15.53H13.2V10.19H11.37v5.34H5.52v1.64h5.85Z"/><path class="cls-1" d="M13.26,7.39c1,.08,1,.72,1.27,1,.09.11-.82.38-1.76.11-.31-.13-.55-.85-.65-.94a1.91,1.91,0,0,1,1.14-.19Zm4.09,1.1c.94.26,1.55,0,1.64-.17s-.13-.89-1.15-1a1.91,1.91,0,0,0-1.14.19c.08.1.32.81.65,1ZM8.68,7.33c1,.1,1,.72,1.27,1,.09.12-.82.38-1.76.12-.31-.13-.55-.85-.65-1A2.22,2.22,0,0,1,8.68,7.33Z"/><path class="cls-2" d="M19.65,5.53a6.92,6.92,0,0,0-1.09-.17,9.26,9.26,0,0,0-1.2.06,7,7,0,0,1-1.83,0,1.37,1.37,0,0,0-.64.1A.51.51,0,0,1,15,5.4a2.54,2.54,0,0,1,.72-.7L16,4.57a1.46,1.46,0,0,0,1.33,0,1.34,1.34,0,0,0,1.55,0,.93.93,0,0,0,.34-.74,1.35,1.35,0,0,0,0-.28,1,1,0,0,0-.92-.66,1.78,1.78,0,0,0-.12-.29.69.69,0,0,0,.13-.17c0-.05.19-.28-.19-.09a.23.23,0,0,1-.09.06,1,1,0,0,0-.17-.14,1.71,1.71,0,0,0-1.31-.11,1,1,0,0,0-.39-.61,1.16,1.16,0,0,0-.82-.11.54.54,0,0,1,.06-.11C15.47,1,15.4.9,15.26,1s-.26.27-.36.34A2,2,0,0,0,13.73.44a1.81,1.81,0,0,0-1.25.14c0-.21-.06-.36-.07-.46s-.17,0-.17,0,0,.25-.06.4A1.66,1.66,0,0,0,10.93.39a1.6,1.6,0,0,0-1,.94,3.35,3.35,0,0,0-.46-.11,2.23,2.23,0,0,0-.38-.4C9,.73,8.89.77,8.94,1A1.56,1.56,0,0,0,9,1.18a1.3,1.3,0,0,0-.72.25,1.22,1.22,0,0,0-.47.81l0,0A1.13,1.13,0,0,0,7,2.77s-.08,0-.08-.06c-.66-.43-.36.14-.09.38-.89.14-1.14.55-1.2.8a.62.62,0,0,0,0,.19.94.94,0,0,0,.4.74.86.86,0,0,0,1,0,1.69,1.69,0,0,0,1.42-.19c.24.26.43.45.54.55a3,3,0,0,0,.86.53,1.82,1.82,0,0,0-.86-.12,5.62,5.62,0,0,1-1.47-.05,8.13,8.13,0,0,0-1.27,0,7.22,7.22,0,0,0-.83.16c-.21,0-.19.17.09.24a9.24,9.24,0,0,1,.93.19,4.38,4.38,0,0,0,1.74.32,1.72,1.72,0,0,1,.85.19,4.24,4.24,0,0,0,.84.19s0,.27,0,.4l-.2.07a2.65,2.65,0,0,0-2.27,0,2,2,0,0,0-1.44-.14.87.87,0,0,0-.44,1.42.93.93,0,0,0,1.29.15A1.13,1.13,0,0,0,8,8.71a3.16,3.16,0,0,0,2.15,0,1.11,1.11,0,0,0,1.16,0,1.13,1.13,0,0,0,1.19,0,1.88,1.88,0,0,0,1.08.2c.79,0,1-.13,1.1-.22a1.34,1.34,0,0,0,1.17.07,1.34,1.34,0,0,0,1.23,0,2.72,2.72,0,0,0,1.93,0c.49-.34.25-1-.28-1.35a2.54,2.54,0,0,0-2.27,0,2.37,2.37,0,0,0-1.63-.21,1.13,1.13,0,0,0,0-.26v0a1.86,1.86,0,0,1,.7-.21,7.14,7.14,0,0,0,2.36-.34c.36-.19,1.58-.41,1.75-.51s.11-.19,0-.25Zm-4.48-.71c-.44.53-.66.7-.74.7A2,2,0,0,0,14,5c.16-.17.86-.49,1.18-.73l.24-.16a1.37,1.37,0,0,0,.31.27A2.37,2.37,0,0,0,15.17,4.82ZM8.77,3.68a1.36,1.36,0,0,0,1.12-.32c.4.62.4,1.17.77,1.57-.47-.46-.88-.46-1.57-.81l-.34-.21c0-.06,0-.12,0-.19Zm2.88.7s-.19-.28-.21-.32-.17-.21-.26-.34l-.42-.48a1.91,1.91,0,0,0,.91-.53.38.38,0,0,1,.11.08,2.31,2.31,0,0,1-.06.27c-.07.41-.07.73-.09.87S11.65,4.27,11.65,4.38ZM11.06,4a3.39,3.39,0,0,1,.34.53,4.44,4.44,0,0,0-.53.27,7.42,7.42,0,0,1-.6-1.31.59.59,0,0,1-.12-.19,1.86,1.86,0,0,0,.33,0A4,4,0,0,1,11.06,4Zm1.21.61a2.29,2.29,0,0,1,2.31,2.31,2.25,2.25,0,0,1,0,.34,2.26,2.26,0,0,0-.41.15,2.3,2.3,0,0,0-2.22,0A2.71,2.71,0,0,0,10,7.22c0-.13,0-.25,0-.3a2.32,2.32,0,0,1,2.31-2.31ZM12,3.72a4.76,4.76,0,0,1,.12-.78l.3.12a3.57,3.57,0,0,1,.17,1.32,2.71,2.71,0,0,0-.57,0A2.22,2.22,0,0,1,12,3.72Zm2.05,0c-.14.29-.06.65-.4,1a4.9,4.9,0,0,0-.51-.25,2.33,2.33,0,0,1,.74-1.23,1,1,0,0,0,.3.25A2,2,0,0,0,14,3.77Zm.36-.09s0,0,0-.08a2.14,2.14,0,0,0,.8.08A1.62,1.62,0,0,0,15.3,4c-.13.06-.53.34-1.11.67a1.13,1.13,0,0,0-.31.22,1.42,1.42,0,0,0,.19-.32A3.42,3.42,0,0,1,14.36,3.68ZM12.94,4a2.39,2.39,0,0,0-.12.34,3.59,3.59,0,0,0-.15-1.29,1.82,1.82,0,0,0,.91-.24,1.11,1.11,0,0,0,.09.19,2.9,2.9,0,0,0-.73,1ZM8.2,4.38a1.39,1.39,0,0,1-1.26.17.12.12,0,0,0-.14,0,.57.57,0,0,1-.7,0A.64.64,0,0,1,5.84,4c.07-.32.47-.54,1.08-.6,0,0,.11-.06.13-.12.11-.54.47-.62.81-.7l.16,0a.12.12,0,0,0,.09-.15,1,1,0,0,1,.36-.69,1.5,1.5,0,0,1,1.48,0,.2.2,0,0,0,.11,0,.16.16,0,0,0,.08-.08A1.32,1.32,0,0,1,11,.69a1.4,1.4,0,0,1,1.26.25.17.17,0,0,0,.17,0A1.48,1.48,0,0,1,13.67.73a1.77,1.77,0,0,1,1.12,1,.16.16,0,0,0,.17.08,1.23,1.23,0,0,1,1,0,.74.74,0,0,1,.33.55.13.13,0,0,0,.05.09.25.25,0,0,0,.12,0,1.47,1.47,0,0,1,1.21.06A.73.73,0,0,1,18,3s0,.11.13.11a.83.83,0,0,1,.78.47.7.7,0,0,1-.21.72,1.18,1.18,0,0,1-1.29,0,.15.15,0,0,0-.13,0,1.23,1.23,0,0,1-1.16,0,1.3,1.3,0,0,1-.68-.85.11.11,0,0,0-.05-.09.13.13,0,0,0-.12,0c-.28,0-1.25.13-1.46-.8a.15.15,0,0,0-.07-.09s-.1,0-.13,0a1.44,1.44,0,0,1-1.84-.1.15.15,0,0,0-.19,0c-.68.68-1.23.65-1.49.53A.14.14,0,0,0,10,3a1.11,1.11,0,0,1-1.22.38.11.11,0,0,0-.13,0,.14.14,0,0,0,0,.13,1.06,1.06,0,0,1-.35.85Zm.33.11a1.53,1.53,0,0,0,.17-.34l.07.06s.23.15.36.23a6.29,6.29,0,0,1,1.35.66,1.62,1.62,0,0,0-.38.51A3.41,3.41,0,0,1,8.53,4.49ZM9,6.37a2.38,2.38,0,0,0-.85-.19,4.12,4.12,0,0,1-1.68-.29c-.1,0-.89-.11-.12-.11a5.59,5.59,0,0,1,1.1,0A7.51,7.51,0,0,0,9,5.82a1,1,0,0,1,.83.24,2.4,2.4,0,0,0-.09.5A3.26,3.26,0,0,1,9,6.37ZM7,8.49c-.36-.25-.58-.72-.83-.65-.09,0-.11.23,0,.23s.26.27.38.38-.38.28-.76.06a.65.65,0,0,1-.21-.86,1,1,0,0,1,.91-.32c.82,0,1.06.95,1.25,1.14A.65.65,0,0,1,7,8.49Zm1.2,0c-.31-.13-.55-.85-.65-1a2,2,0,0,1,1.14-.19c1,.1,1,.72,1.27,1,.09.14-.84.38-1.76.12Zm3.31.07A3.44,3.44,0,0,1,11,8c-.1-.13-.29-.24-.38-.13s0,.15.09.19a1.46,1.46,0,0,1,.36.44.52.52,0,0,1-.74-.06c-.13-.17-.39-.66-.56-.87a2.5,2.5,0,0,1,1.76-.06c.47.23.54.72.73,1s-.49.26-.77.07Zm1.27,0c-.31-.13-.55-.85-.65-.94a1.91,1.91,0,0,1,1.14-.19c1,.09,1,.72,1.27,1,.09.11-.82.38-1.76.11Zm5.07-1.17c1,.1,1.25.76,1.15,1s-.7.43-1.64.17c-.31-.14-.55-.85-.65-1a1.84,1.84,0,0,1,1.14-.19Zm-1.72.15c.47.23.56.72.73,1s-.53.21-.77.07A3.44,3.44,0,0,1,15.59,8c-.1-.13-.27-.2-.35-.09s0,.15.1.19a1.25,1.25,0,0,1,.32.4c0,.09-.42.22-.72-.08a6.34,6.34,0,0,1-.53-.89A2.46,2.46,0,0,1,16.12,7.5Zm2.72-1.76a7.4,7.4,0,0,0-1.1.31,8,8,0,0,1-2.19.28c-.46,0-.59.19-.76.17a1.84,1.84,0,0,0-.15-.59,2.29,2.29,0,0,1,.93-.19,12.68,12.68,0,0,0,1.85,0c.23,0,1.06,0,1.17,0l.29,0C19.09,5.71,18.94,5.72,18.84,5.74Z"/><path class="cls-2" d="M7,3.77A.74.74,0,0,0,6.33,4c-.19.21-.13.31-.17.34S6,4.27,6,4.17c0-.47.59-.66.93-.62.13,0,.15.22,0,.22"/><path class="cls-2" d="M8,3a.52.52,0,0,0-.53.42c0,.07-.23,0-.19-.14A.69.69,0,0,1,8,2.75S8,3,8,3"/><path class="cls-2" d="M9.55,2a.76.76,0,0,0-1.06.63c0,.06-.23,0-.19-.13a1,1,0,0,1,1.34-.74c.08,0,0,.28-.09.24"/><path class="cls-2" d="M11.93,1.37a.92.92,0,0,0-1.3.21c-.12.13-.25-.1-.19-.17A1.07,1.07,0,0,1,12,1.13c.07.07,0,.3-.1.24"/><path class="cls-2" d="M14.37,1.92s-.07,0-.11-.09a1.08,1.08,0,0,0-1.74-.23c-.06.07-.19-.13-.11-.25a1.29,1.29,0,0,1,2.06.34c.06.12,0,.19-.1.23"/><path class="cls-2" d="M15.85,2.45c-.15-.4-.43-.38-.76-.27C14.94,2.24,15,2,15,2c.32-.12.87-.17,1,.38,0,.15-.17.22-.21.11"/><path class="cls-2" d="M17.59,3.28a.79.79,0,0,0-1.06-.36c-.07,0-.15-.17,0-.24a.89.89,0,0,1,1.27.47c0,.11-.11.3-.19.13"/><path class="cls-2" d="M18.69,4.06c0,.07-.23.09-.21,0,0-.4-.17-.44-.43-.44-.1,0-.1-.2,0-.22a.54.54,0,0,1,.66.66"/><path class="cls-2" d="M11.78,6.12a.25.25,0,0,1-.28.25.26.26,0,0,1-.25-.29v0s-.15-.08-.32,0-.19,0,0-.11a.92.92,0,0,1,.46-.25,2,2,0,0,1,.68.1c.05,0,0,.32,0,.3a.47.47,0,0,0-.25,0Z"/><path class="cls-2" d="M12.54,6.94c0,.13-.53.18-.63,0s-.07-.25,0-.21a1.5,1.5,0,0,0,.56,0c.06,0,0-.12.06-.1s.08.17,0,.31"/><path class="cls-2" d="M13.69,6.18c-.11-.1-.28-.15-.34-.1v0a.25.25,0,0,1-.24.29.26.26,0,0,1-.29-.25v0c-.09,0-.24,0-.26,0s-.08-.28,0-.32,1-.13,1.19.28c0,.06,0,.12-.06.08"/><path class="cls-2" d="M13.5,10.19h5.55v5H13.5Zm-8,0h5.54v5H5.52Zm5.56,14A9.4,9.4,0,0,1,7.37,22.4a5.28,5.28,0,0,1-.81-1H8v.21h.66v-.21h1.59V18.74H9.89v-.49a5.14,5.14,0,0,1-1.16-.11.66.66,0,0,0-.41.11.75.75,0,0,0-.42-.11,5,5,0,0,1-1.15.11v.49H6.41v2.41a7.29,7.29,0,0,1-.85-3.47l0-.2h5.54ZM7,20.9V18.59a6.79,6.79,0,0,0,.89-.11.29.29,0,0,1,.25.09V20.9a.89.89,0,0,0-.65,0C7.14,21,7,20.9,7,20.9Zm1.48,0V18.57a.23.23,0,0,1,.24-.09,6.41,6.41,0,0,0,.89.11V20.9s-.13.1-.47,0S8.49,20.9,8.49,20.9Zm4.71,3.41-.93.23-.9-.25V17.17H5.52V15.53h5.85V10.19H13.2v5.34H19v1.64H13.2Zm5-3.12V18.76h-.34v-.49a5.08,5.08,0,0,1-1.16-.11.71.71,0,0,0-.42.11.66.66,0,0,0-.41-.11,5.14,5.14,0,0,1-1.16.11v.49h-.34v2.69H16v.21h.67v-.21h1.43a5.7,5.7,0,0,1-.83,1,9.46,9.46,0,0,1-3.73,1.79V17.48h5.55v.22a7.87,7.87,0,0,1-.85,3.49Zm-.63-2.62v2.31s-.13.1-.47,0-.64,0-.64,0V18.57s.05-.11.24-.09c.34,0,.68.13.87.09Zm-1.47,0V20.9a.89.89,0,0,0-.65,0c-.34.1-.47,0-.47,0V18.57a6.79,6.79,0,0,0,.89-.11c.19,0,.23.11.23.11ZM5.18,9.85v7.46c0,2.46.6,4.16,1.93,5.35a11.61,11.61,0,0,0,5.16,2.25,11.41,11.41,0,0,0,5.17-2.25c1.32-1.19,1.93-2.89,1.93-5.35V9.85Z"/><path class="cls-2" d="M9.89,11.52V11a5.14,5.14,0,0,1-1.16-.11.66.66,0,0,0-.41.11.75.75,0,0,0-.42-.11A5,5,0,0,1,6.75,11v.5H6.41V14.2H8v.21h.66V14.2h1.59V11.52ZM8.13,13.65a.87.87,0,0,0-.64,0c-.35.1-.48,0-.48,0v-2.3c.19,0,.53-.1.89-.12a.28.28,0,0,1,.25.1Zm1.48,0s-.14.1-.48,0-.64,0-.64,0V11.33a.23.23,0,0,1,.24-.1,6.41,6.41,0,0,0,.89.11Z"/><path class="cls-2" d="M17.88,11.52V11a5.08,5.08,0,0,1-1.16-.11.71.71,0,0,0-.42.11.66.66,0,0,0-.41-.11,5.14,5.14,0,0,1-1.16.11v.5h-.34V14.2H16v.21h.67V14.2h1.59V11.52Zm-1.8,2.13a.89.89,0,0,0-.65,0c-.34.1-.47,0-.47,0v-2.3c.19,0,.53-.1.89-.12a.28.28,0,0,1,.25.1v2.34Zm1.47,0s-.13.1-.47,0-.64,0-.64,0V11.33s0-.12.24-.1a6.08,6.08,0,0,0,.89.11v2.29Z"/><path class="cls-3" d="M13.5,24.21a9.4,9.4,0,0,0,3.73-1.79,4.92,4.92,0,0,0,.83-1H16.63v.21H16v-.21H14.37V18.76h.35v-.49a5,5,0,0,0,1.15-.11.71.71,0,0,1,.42.11.73.73,0,0,1,.41-.11,5.14,5.14,0,0,0,1.16.11v.49h.34v2.43A7.63,7.63,0,0,0,19,17.7v-.22H13.48v6.73Z"/><path class="cls-3" d="M5.54,17.68a7.53,7.53,0,0,0,.85,3.47V18.74h.34v-.49a5,5,0,0,0,1.15-.11.68.68,0,0,1,.42.11.75.75,0,0,1,.42-.11,5,5,0,0,0,1.15.11v.49h.34v2.69H8.62v.21H8v-.21H6.54a6,6,0,0,0,.81,1,9.27,9.27,0,0,0,3.71,1.81V17.48H5.52Z"/><path class="cls-3" d="M8.13,20.9V18.57a.24.24,0,0,0-.25-.09,6.08,6.08,0,0,1-.89.11V20.9s.14.1.48,0S8.13,20.9,8.13,20.9Z"/><path class="cls-3" d="M6.43,5.89a4.18,4.18,0,0,0,1.68.29A2.49,2.49,0,0,1,9,6.37a3.32,3.32,0,0,0,.8.19c0-.1.05-.38.09-.5A1,1,0,0,0,9,5.82a6.38,6.38,0,0,1-1.63,0,5.62,5.62,0,0,0-1.1,0c-.77,0,0,.08.14.11Z"/><path class="cls-3" d="M7.9,11.21a8.25,8.25,0,0,1-.89.12v2.3s.13.1.48,0,.64,0,.64,0V11.33A.25.25,0,0,0,7.9,11.21Z"/><path class="cls-3" d="M16.66,11.21a.27.27,0,0,0-.24.1v2.32a.85.85,0,0,1,.64,0c.34.09.47,0,.47,0V11.31a4.89,4.89,0,0,1-.87-.1Z"/><path class="cls-3" d="M19.05,10.19H13.5v5h5.55Zm-.83,4H16.63v.21H16V14.2H14.37V11.52h.35V11a5,5,0,0,0,1.15-.11.71.71,0,0,1,.42.11.73.73,0,0,1,.41-.11,5.14,5.14,0,0,0,1.16.11v.5h.34Z"/><path class="cls-3" d="M16.48,18.57V20.9a.86.86,0,0,1,.64,0c.34.1.47,0,.47,0V18.57a6.41,6.41,0,0,1-.89-.11.23.23,0,0,0-.22.11Z"/><path class="cls-3" d="M15,18.57v2.31s.13.1.47,0,.65,0,.65,0V18.57a.24.24,0,0,0-.25-.09c-.34,0-.66.13-.87.09Z"/><path class="cls-3" d="M15.83,11.21a8.25,8.25,0,0,1-.89.12v2.3s.13.1.48,0,.64,0,.64,0V11.33s0-.12-.23-.12Z"/><path class="cls-3" d="M10.49,5.1a5.58,5.58,0,0,0-1.34-.66,1.6,1.6,0,0,1-.36-.23l-.07-.06a1.53,1.53,0,0,1-.17.34,3.4,3.4,0,0,0,1.59,1.1A1.49,1.49,0,0,1,10.49,5.1Z"/><path class="cls-3" d="M10.17,3.28l.12.19a6.82,6.82,0,0,0,.6,1.31,1.9,1.9,0,0,1,.53-.27s-.17-.3-.34-.53c-.32-.41-.55-.64-.57-.68A.65.65,0,0,1,10.17,3.28Z"/><path class="cls-3" d="M10,7.22a2.61,2.61,0,0,1,1.93.19,2.36,2.36,0,0,1,2.22,0,1.19,1.19,0,0,1,.41-.15,2.25,2.25,0,0,0,0-.34,2.29,2.29,0,0,0-2.31-2.31A2.32,2.32,0,0,0,10,6.92a2.78,2.78,0,0,1,0,.3Zm2.56-1.4c.22-.1,1-.13,1.19.28,0,.06,0,.12-.06.06s-.28-.15-.34-.1v0a.25.25,0,0,1-.24.29.26.26,0,0,1-.29-.25v0c-.09,0-.24,0-.26,0S12.46,5.86,12.56,5.82Zm-.08.89c.06,0,0-.12.06-.1s.06.17,0,.31-.53.19-.63,0-.07-.25,0-.21a1.26,1.26,0,0,0,.58,0ZM10.89,6a.92.92,0,0,1,.46-.25,1.77,1.77,0,0,1,.68.1c.05,0,0,.32,0,.3a.47.47,0,0,0-.25,0v0a.25.25,0,0,1-.28.25.26.26,0,0,1-.25-.29v0s-.15-.08-.32,0-.19,0,0-.09Z"/><path class="cls-3" d="M11.54,7.5a2.5,2.5,0,0,0-1.76.06c.15.21.43.72.56.87a.52.52,0,0,0,.74.06,3.48,3.48,0,0,0-.36-.44c-.09-.06-.13-.13-.09-.19s.26,0,.38.13a2.69,2.69,0,0,0,.49.55c.28.19.83.1.77-.07s-.26-.76-.73-1Z"/><path class="cls-3" d="M6.5,7.33a1.15,1.15,0,0,0-.91.32.65.65,0,0,0,.21.86c.38.22.72.07.76-.06s-.29-.38-.38-.38-.13-.19,0-.23.49.38.83.65.76,0,.76,0C7.54,8.28,7.32,7.35,6.5,7.33Z"/><path class="cls-3" d="M12.54,4.38a3.22,3.22,0,0,0-.17-1.32.63.63,0,0,1-.3-.12,3.15,3.15,0,0,0-.12.78,2.09,2.09,0,0,0,0,.66A2.51,2.51,0,0,1,12.54,4.38Z"/><path class="cls-3" d="M13.83,3.26a2.41,2.41,0,0,0-.74,1.23c.13.06.45.21.51.25.34-.32.26-.7.4-1a1.82,1.82,0,0,1,.15-.26,1.61,1.61,0,0,1-.32-.25Z"/><path class="cls-3" d="M15,8.43c.3.3.7.17.72.08a2.24,2.24,0,0,0-.32-.4c-.1-.06-.15-.13-.1-.19s.25,0,.34.09a2.45,2.45,0,0,0,.5.55c.26.15.83.1.77-.07s-.26-.76-.74-1a2.23,2.23,0,0,0-1.68,0A4.22,4.22,0,0,0,15,8.43Z"/><path class="cls-3" d="M14.81,6.5c.15,0,.3-.17.76-.17a8,8,0,0,0,2.19-.28,6.35,6.35,0,0,1,1.1-.31c.09,0,.25,0,.06-.07l-.29,0c-.13,0-.94,0-1.17,0a14.35,14.35,0,0,1-1.86,0,2.54,2.54,0,0,0-.92.18S14.79,6.25,14.81,6.5Z"/><path class="cls-3" d="M8.55,3.36s.09,0,.13,0A1.06,1.06,0,0,0,9.89,3a.16.16,0,0,1,.17-.06c.26.12.83.16,1.49-.53a.17.17,0,0,1,.19,0,1.43,1.43,0,0,0,1.84.1s.09-.06.13,0a.13.13,0,0,1,.08.1,1.16,1.16,0,0,0,1.45.79.25.25,0,0,1,.12,0,.11.11,0,0,1,.06.09,1.33,1.33,0,0,0,.68.86,1.21,1.21,0,0,0,1.15,0,.15.15,0,0,1,.13,0c.53.28,1,.3,1.29,0a.67.67,0,0,0,.21-.72.79.79,0,0,0-.78-.48A.16.16,0,0,1,18,3a.7.7,0,0,0-.36-.53,1.47,1.47,0,0,0-1.21-.06.11.11,0,0,1-.11,0,.09.09,0,0,1-.06-.09.73.73,0,0,0-.32-.55,1.26,1.26,0,0,0-1,0,.14.14,0,0,1-.17-.08,1.73,1.73,0,0,0-1.11-1A1.52,1.52,0,0,0,12.39.9a.14.14,0,0,1-.17,0A1.41,1.41,0,0,0,11,.65a1.36,1.36,0,0,0-.87.89s0,.08-.08.08a.11.11,0,0,1-.11,0,1.47,1.47,0,0,0-1.48,0,.93.93,0,0,0-.36.68A.15.15,0,0,1,8,2.47l-.15,0c-.34.07-.7.15-.82.7,0,0,0,.11-.13.11-.6.06-1,.28-1.08.61a.65.65,0,0,0,.27.64.57.57,0,0,0,.7,0,.15.15,0,0,1,.13,0,1.36,1.36,0,0,0,1.27-.17.91.91,0,0,0,.28-.89.27.27,0,0,0,.12-.09ZM18,3.4a.53.53,0,0,1,.66.66c0,.07-.23.09-.21,0,0-.4-.17-.44-.43-.44-.1,0-.1-.2,0-.22Zm-1.52-.7a.89.89,0,0,1,1.27.47c0,.11-.11.28-.19.13a.79.79,0,0,0-1.06-.36C16.46,3,16.38,2.77,16.51,2.7ZM15,2c.32-.12.87-.17,1,.38,0,.15-.15.22-.19.11-.15-.4-.43-.38-.76-.27C14.92,2.24,15,2,15,2Zm-2.61-.61a1.29,1.29,0,0,1,2.06.34c.06.12,0,.19-.1.23s-.07,0-.11-.09a1.08,1.08,0,0,0-1.74-.23C12.46,1.67,12.33,1.47,12.41,1.35Zm-1.95.08a1.07,1.07,0,0,1,1.59-.29c.07.06,0,.31-.1.25a.91.91,0,0,0-1.3.21C10.51,1.73,10.4,1.5,10.46,1.43ZM7,3.77A.74.74,0,0,0,6.33,4c-.19.21-.13.31-.17.34S6,4.27,6,4.17c0-.47.59-.66.93-.62C7.05,3.57,7.07,3.77,7,3.77ZM8,3a.52.52,0,0,0-.53.42c0,.07-.23,0-.19-.14A.69.69,0,0,1,8,2.75S8,3,8,3Zm.3-.47a1,1,0,0,1,1.34-.74c.12,0,0,.3-.07.24a.76.76,0,0,0-1.06.63S8.24,2.66,8.28,2.51Z"/><path class="cls-3" d="M15.45,4.13a2.5,2.5,0,0,0-.24.16c-.32.24-1,.56-1.18.73a1.61,1.61,0,0,1,.4.5c.08,0,.3-.17.74-.7a2.34,2.34,0,0,1,.57-.42A.75.75,0,0,1,15.45,4.13Z"/><path class="cls-3" d="M9.13,20.9c.34.1.48,0,.48,0V18.59a6.41,6.41,0,0,1-.89-.11.29.29,0,0,0-.25.09V20.9A.89.89,0,0,1,9.13,20.9Z"/><path class="cls-3" d="M11.08,10.19H5.52v5h5.54Zm-.85,4H8.64v.21H8V14.2H6.39V11.52h.34V11a5,5,0,0,0,1.15-.11A.68.68,0,0,1,8.3,11a.75.75,0,0,1,.42-.11A5,5,0,0,0,9.87,11v.5h.34V14.2Z"/><path class="cls-3" d="M8.72,11.21a.28.28,0,0,0-.25.1v2.32a.85.85,0,0,1,.64,0,.64.64,0,0,0,.48,0V11.31a5.2,5.2,0,0,1-.87-.1Z"/><rect class="cls-4" width="24.91" height="24.91"/></g></g></svg>