<svg width="221.3" height="257" xmlns="http://www.w3.org/2000/svg" viewBox="0 0 22.13 25.7"><defs><style>.cls-1{fill:#333333;}.cls-2{fill:#2f80ed;}</style></defs><title>Asset 2</title><g id="Layer_2" data-name="Layer 2"><g id="Layer_1-2" data-name="Layer 1"><path class="cls-1" d="M11.69,25.7H0V22.61l3.13-1.45V4.54L0,3.09V0H11.69V3.09L8.56,4.54V21.16l3.13,1.45Z"/><path class="cls-2" d="M21.05,14.27a5.73,5.73,0,0,0-3.53-2v-.17a4.31,4.31,0,0,0,2.88-1.78A6.22,6.22,0,0,0,21.48,6.5,5.39,5.39,0,0,0,19,1.56,13.31,13.31,0,0,0,12.69,0V3.73l-1.59.73h.29a6.91,6.91,0,0,1,3.42.65,2.25,2.25,0,0,1,1.08,2.11,2.55,2.55,0,0,1-1,2.27,5.79,5.79,0,0,1-3.21.69H9.56V14.5H11.9q4.57,0,4.57,3.2a3.21,3.21,0,0,1-1.07,2.64,5.33,5.33,0,0,1-3.33.86H11l1.66.77V25.7a11,11,0,0,0,6.9-2,6.55,6.55,0,0,0,2.54-5.48A6.65,6.65,0,0,0,21.05,14.27Z"/></g></g></svg>