<svg xmlns="http://www.w3.org/2000/svg" viewBox="0 0 22.25 25.69"><defs><style>.cls-1{fill:#2b3561;}</style></defs><title>Asset 4</title><g id="Layer_2" data-name="Layer 2"><g id="Layer_1-2" data-name="Layer 1"><path class="cls-1" d="M20.93,12.84a9.73,9.73,0,0,0-.54-3.2l1.86-3.22H18.53A9.82,9.82,0,0,0,13,3.21L11.12,0,9.27,3.21A9.82,9.82,0,0,0,3.72,6.42H0L1.86,9.64a9.61,9.61,0,0,0,0,6.41L0,19.27H3.72a9.81,9.81,0,0,0,5.55,3.2l1.85,3.22L13,22.47a9.81,9.81,0,0,0,5.55-3.2h3.72l-1.86-3.22A9.74,9.74,0,0,0,20.93,12.84ZM8.24,11.65a2.84,2.84,0,1,1,2.84-2.84A2.84,2.84,0,0,1,8.24,11.65Z"/></g></g></svg>