<svg xmlns="http://www.w3.org/2000/svg" viewBox="0 0 30.98 18.4"><defs><style>.cls-1{fill:#2f80ed;}</style></defs><title>bike</title><g id="Layer_2" data-name="Layer 2"><g id="Layer_1-2" data-name="Layer 1"><path class="cls-1" d="M24.39,5.23A6.19,6.19,0,0,0,23,5.38L21.79,1.21,24.74,1a.72.72,0,0,1,.74.54.7.7,0,0,1-.11.61.74.74,0,0,1-.53.3l-.72,0a.51.51,0,0,0,.08,1l.71,0A1.74,1.74,0,0,0,24.67,0L21.09.25a.49.49,0,0,0-.38.21.49.49,0,0,0-.07.44l.5,1.68H11.33l-.49-.93h1.28a.5.5,0,0,0,.5-.51.5.5,0,0,0-.5-.51H8.45a.5.5,0,0,0-.5.51.5.5,0,0,0,.5.51H9.71l.74,1.43L9,5.69a6.37,6.37,0,0,0-2.4-.46,6.59,6.59,0,1,0,6.57,7.09h2.47a.5.5,0,0,0,.43-.24l5.36-8.57.64,2.16a6.57,6.57,0,1,0,2.34-.44ZM6.58,17.39a5.58,5.58,0,0,1,0-11.15,5.43,5.43,0,0,1,1.9.34L6,10.94a1,1,0,1,0,1.46,1.38h4.64A5.58,5.58,0,0,1,6.58,17.39Zm.91-6.08A1,1,0,0,0,7.18,11L9.4,7a5.59,5.59,0,0,1,2.73,4.3Zm5.66,0A6.61,6.61,0,0,0,9.9,6.13l1.11-2,3.77,7.17Zm2.51-.51L11.87,3.6h8.29Zm8.73,6.59A5.57,5.57,0,0,1,22.34,6.64l1.31,4.45a1,1,0,0,0-.29.73,1,1,0,0,0,2.07,0,1,1,0,0,0-.81-1L23.31,6.35a5.49,5.49,0,0,1,1.08-.11,5.58,5.58,0,1,1,0,11.15Z"/></g></g></svg>