<svg width="128" height="128" viewBox="0 0 128 128" fill="none" xmlns="http://www.w3.org/2000/svg">
<path d="M66.9167 119.94H16V106.481L29.633 100.165V27.7755L16 21.4599V8.00122H66.9167V21.4599L53.2837 27.7755V100.165L66.9167 106.481V119.94Z" fill="#333333"/>
<path d="M107.683 70.1546C103.792 65.4729 98.324 62.3748 92.3081 61.4434V60.703C94.814 60.3244 97.2174 59.4423 99.3733 58.1098C101.529 56.7774 103.393 55.0222 104.852 52.9501C108.195 48.0666 109.848 42.2228 109.556 36.3118C109.866 32.0842 109.025 27.8517 107.123 24.0634C105.222 20.2751 102.33 17.0724 98.7543 14.7952C90.2954 10.2938 80.8526 7.9593 71.2706 8.00054V24.2468L64.3453 27.4264H65.6084C70.734 27.0834 75.8621 28.058 80.5045 30.2575C82.0661 31.1999 83.3338 32.5594 84.1648 34.183C84.9959 35.8066 85.3573 37.6299 85.2085 39.4478C85.384 41.3303 85.0761 43.2264 84.3139 44.9567C83.5517 46.6869 82.3604 48.1939 80.8529 49.3349C76.5801 51.6648 71.7243 52.7086 66.8715 52.3403H57.6377V71.1564H67.8297C81.0997 71.1564 87.7347 75.8023 87.7347 85.0942C87.8952 87.2403 87.5582 89.3944 86.7498 91.3889C85.9415 93.3833 84.6836 95.1642 83.0743 96.5929C78.7863 99.4099 73.686 100.727 68.5702 100.339H63.9097L71.14 103.693V119.939C81.8504 120.48 92.4329 117.413 101.193 111.228C104.818 108.429 107.715 104.799 109.64 100.645C111.566 96.4903 112.463 91.9334 112.257 87.3591C112.576 81.2864 110.976 75.2672 107.683 70.1546V70.1546Z" fill="#2F80ED"/>
</svg>
