<svg width="729" height="529" viewBox="0 0 729 529" fill="none" xmlns="http://www.w3.org/2000/svg">
<g clip-path="url(#clip0_20_315)">
<path d="M151 523L118.5 526L156.5 514L187.5 508L221.5 501.5L262 486L286.5 462L304.5 420.5L310.5 395L312 369L325.5 344L341.5 315L372.5 278L404.5 253.5L432 235.5L463 228H493.5L523.5 235.5L545 249.5L568.5 262L571 270.5L561 273L523.5 265L481 258.5L457 256.5L424 265L391 285.5L368 316.5L355.5 371V414.5L368 446L386 473.5L406 492.5L436 496.5L473.5 500L534 508L567.5 521H552H503L420.5 525.5L341.5 528.5L278 525.5L218 521H194L167.5 523H151Z" fill="#877267"/>
<path d="M239.5 40L260.5 50.5L273 51L285 35.5L301 26.5L324 13L352 6.5H372.5H397L415 13L431 22L434.5 37.5L431 59.5L450.5 53L469.5 51H497.5L518.5 55.5L538.5 62.5L554 76L566 93.5V116.5L554 135L571.5 137L592.5 135L615 139L636.5 148L665.5 164L674 192L665.5 208.5L674 210.5L700 217L718 224.5L722.5 239.5L718 257L694 270L647 277L611 273.5L567.5 263.5L550.5 254L531.5 241.5L514 232L483.5 226.5L448 232L420 246.5L386.5 268.5L354.5 299.5L335.5 327L318.5 357.5L310 361.5L304 340.5L296 319L278 288.5L262.5 277L225.5 263L196.5 261L163.5 264L129.5 273.5L103.5 279L65 283L42.5 282L20.5 276.5L14 267.5L11 252.5L20.5 239.5L11 227.5L6.5 214V198L17.5 177.5L46 154L70 141L143 129.5L130 109.5V87L143 71L162 50.5L187 43.5L215 40H239.5Z" fill="#6E906D" stroke="black"/>
<path d="M331 312L310 270.5L304.5 279.5L288 258.5L265.5 229.5L231.5 210L202 203H181.5L154 210L139.5 219L133 224.5L128.5 231.5L124.5 239L123 253L133 248.5L148 241.5L174.5 236L197.5 233.5L219.5 241.5L241.5 250.5L255.5 258.5L268.5 272.5L286 297.5L300 329L308.5 351.5L317.5 363L324 345L331 312Z" fill="#877267"/>
<path d="M424.5 201.5L403.5 208L397.5 212L388 218.5L362 245L348 270.5L336.5 292L334 309L342.5 315L352.5 300L363 288L372.5 274.5L385.5 254L412.5 218.5L425.5 209L428 201L424.5 201.5Z" fill="#877267"/>
<path d="M551.5 302.5L560 306L563 307L579.5 305L590 316L591.5 337L580 352.5L568 357.5L551.5 358.5L538.5 349L531.5 337V321L540 307L551.5 302.5Z" fill="#E34848"/>
<path d="M591 283.5L575.5 286.5L565.5 291L570.5 297L581 298L594.5 294.5L600 289L598 283.5H591Z" fill="#6E906D"/>
<path d="M362 0H390L406 3L420 8L430 15L437 23L440 30L441 42L438 52L437 54L449 50L465 47L475 46H493L514 49L528 53L544 61L553 67L561 74L568 84L572 95V112L568 123L562 131L577 130L603 132L623 137L639 143L654 151L664 159L671 166L677 178L678 182V193L674 203L673 205L687 207L705 213L716 219L722 224L727 231L729 237V246L725 255L715 264L701 271L686 276L672 279L650 281H634L612 279L590 275L574 271L570 277L569 286L578 283L590 281H601L606 283L603 290L595 297L587 300L579 301L589 307L594 313L597 323V333L594 343L588 352L580 358L577 359H564L558 361L549 360L541 356L534 350L529 342L527 336L526 326L528 316L534 306L541 301L544 300H555L563 304L562 296L560 289V279L561 277L556 276L536 271L529 272L514 277L500 280H477L475 277L502 273L515 269L494 264L477 261H451L435 265L420 271L406 280L393 291L384 302L377 313L369 329L364 344L360 362L359 370V400L362 418L367 434L374 450L383 463L392 473L402 481L416 489L419 490L453 492L487 496L514 501L539 508L561 516L569 521V523L525 512L504 508L464 503L433 501L454 509L483 516L503 520L506 521V523H486L469 521L444 516L420 508L404 500L385 499L371 496L360 490L352 482L346 472L344 466V459H346L354 472L362 480L376 487L391 491V489L387 487L379 480L372 473L365 463L357 449L350 430L346 411L345 403V370L348 352L353 335L359 320L366 307L376 293L389 279L402 269L416 261L435 254L452 251H471L490 254L522 261L533 262L546 257L542 253L527 244L516 239L499 234L492 233H469L450 237L430 245L416 253L399 264L383 276L373 285L361 297L348 314L336 333L325 356L318 377L312 419L307 438L300 455L291 469L280 481L271 489L255 498L237 504L213 509L162 517L120 526H115L118 523L138 515L163 508L197 501L223 496L244 490L258 483L267 476L272 472L282 459L290 444L297 422L300 406L301 399L302 376L301 359L297 338L291 320L282 303L273 292L263 284L250 276L236 270L219 265L204 263H189L171 266L154 270L118 280L93 285L77 287H48L31 284L18 279L10 273L6 268L5 266V254L10 244L12 241L11 237L4 227L0 215V199L4 187L13 173L26 160L40 150L63 138L88 130L113 126L129 125L132 124L126 115L123 104V96L126 84L132 74L141 64L151 56L167 47L182 41L196 37L210 35H231L247 38L260 43L267 47L279 35L294 24L306 17L324 9L345 3L362 0ZM365 10L351 12L336 16L316 24L297 34L284 44L274 53L276 58L279 68L278 79L275 82L273 70L267 61L263 65L256 79V82L254 81V68L260 56L251 50L238 46L232 45H210L190 49L174 55L159 63L150 70L141 79L135 91L134 95V104L138 115L144 123L149 127L168 134L177 139L178 142L164 138L147 135H118L98 138L79 143L65 148L46 158L34 167L23 177L16 187L12 196L10 205L11 216L15 226L19 233L23 231L39 220L55 212L65 208L77 205L84 204H107L116 206V208H89L75 211L59 217L46 224L35 232L27 239L31 244L43 250L55 254L69 256H87L106 253L122 248L152 236L168 232L184 230H196L214 233L226 237L245 247L259 258L264 263H266L268 267L277 276L288 290L297 305L304 320L310 340L313 354L315 352L321 337L327 324L332 299L337 283L345 265L353 252L362 240L373 228L385 218L396 211L405 207V209L401 211L389 222L377 234L364 251L353 270L346 286L339 308L341 309L347 300L358 287L367 276L378 255L388 240L398 227L410 214L417 207L431 196L445 187L461 179L476 173L506 162L522 154L537 145L539 142L527 144L506 151L491 159L479 168L476 169L482 161L492 153L509 143L530 136L549 132L556 124L561 114L562 110V99L559 90L553 81L544 73L534 67L520 61L502 57L494 56H471L447 60L430 65L408 75L404 76L407 71L420 60L425 55L429 49L430 46V35L427 27L419 19L408 14L396 11L388 10H365ZM555 140L550 143L540 151L525 160L508 168L481 178L458 189L440 201L427 212L417 221L410 229L398 243L386 260L387 262L396 254L410 244L431 233L452 226L469 223H488L505 226L524 233L542 243L555 252L562 251L575 247L586 245H602L615 249L621 253L623 258L616 255L610 252L595 250L577 252L565 256V258L575 261L583 257L591 255L589 259L582 263L583 265L601 269L628 272H653L669 270L687 266L702 260L712 253L717 247L718 244V237L714 230L704 223L692 218L677 214L666 213L655 221L641 226L634 227L638 224L649 218L656 213V212H640L626 214L606 221L611 216L621 211L634 207L656 205H662L667 197L668 193V184L664 174L655 164L641 155L628 149L612 144L597 141L588 140H555ZM181 239L168 241L148 247L122 257L100 263L93 264H66L49 261L34 255L24 249L20 247L16 254V263L22 270L34 275L50 278L66 279L90 277L115 272L138 266L165 258L187 254H212L235 259L248 264L250 263L235 252L216 243L203 240L195 239H181ZM555 261L544 265V267L561 271H564L566 269L565 265L555 261ZM593 287L571 292L570 294H583L594 290L596 287H593ZM547 307L542 310L537 316L535 323V331L539 341L546 349L552 352L560 353L565 351L573 352L579 349L585 342L588 335L589 325L586 316L581 310L577 308H570L566 311H559L553 307H547Z" fill="#121212"/>
<path d="M430 169L431 172L425 180L416 187L404 193L393 196L386 197H370L350 193L328 187H313L304 190L298 197L296 203V217L302 240L311 265L317 286L321 305L322 313V322L319 321L310 300L303 287L294 274L283 260L270 245L262 237L252 229L241 222L227 215L210 210L203 209H176L159 213L147 218L135 226L132 225L139 217L150 209L163 203L176 199L183 198H204L221 201L238 207L251 214L262 222L276 234L283 242L291 251L304 270L300 260L292 243L286 226L284 216V199L288 189L295 181L302 177L310 175H326L343 179L362 185L371 187H391L407 183L423 175L430 169Z" fill="#131313"/>
<path d="M331 380H333V404L330 431L326 448L318 467L310 479L301 489L291 498L276 507L255 515L234 520L221 522H197L196 520L221 515L247 508L265 500L276 494L287 485L297 475L307 461L316 442L322 422L330 381L331 380Z" fill="#131313"/>
</g>
<defs>
<clipPath id="clip0_20_315">
<rect width="729" height="529" fill="white"/>
</clipPath>
</defs>
</svg>
