<svg width="586" height="584" viewBox="0 0 586 584" fill="none" xmlns="http://www.w3.org/2000/svg">
<circle cx="292" cy="292" r="292" fill="white"/>
<path d="M260.722 0.248432L256.276 3.79992L252.275 10.311L248.422 18.4498L243.828 33.9876L241.605 49.6734L242.346 78.3812L221.303 58.2561L203.223 46.8618L190.034 41.0906L175.807 37.5391L168.991 38.131L166.323 41.0906L164.841 47.4537L165.582 61.3637L168.546 74.9777L172.251 86.0761L178.919 100.578L161.729 94.6589L138.611 90.5155L121.569 90.8115L115.048 92.1433L108.083 95.8427L105.86 99.9862L106.898 108.125L113.418 123.071L124.533 138.905L137.129 151.631L115.937 156.958L107.194 160.066L93.8567 166.577L85.1133 172.348L80.6675 176.787L78 181.522V185.518L81.1121 190.697L85.706 195.285L96.8205 204.015L116.086 212.894L132.683 217.629L114.159 236.423L102.304 253.884L98.1543 264.095V269.718L101.415 273.565L108.38 275.637L129.719 274.897L151.059 270.606L174.918 263.207L164.989 279.336L157.135 298.13L155.357 306.565V314.703L157.283 318.847L159.506 320.771L162.174 321.51L176.548 320.771L189.441 317.071L195.517 314.407L210.633 305.529L228.712 289.399L229.601 311.448L231.824 321.658L234.047 327.134L239.086 335.124L245.162 341.192L249.756 343.707L255.387 343.263L262.649 339.564L267.687 334.533L275.541 322.694L281.617 307.304L284.878 293.099L286.804 278.005L287.841 278.449L290.509 285.848L292.584 295.91L294.955 322.842L296.14 355.99V396.98L294.955 414.737L286.804 461.942L276.431 432.495L267.539 415.329L262.5 400.087L257.462 390.765L249.311 379.962L239.975 371.083L231.38 364.868L221.303 359.245L207.076 353.77L190.627 350.662L167.509 351.106L152.393 354.066L134.906 360.133L123.495 366.052L118.901 369.456L115.937 372.563L114.752 376.115L117.716 379.962L130.016 384.549L140.982 391.948L159.21 407.93L174.77 419.768L190.33 428.351L198.777 431.607L214.338 435.602L231.528 436.342L244.717 433.826L252.72 430.571L261.759 425.096L263.834 425.392L267.983 432.643L274.949 450.252L281.321 472.597L282.803 483.251L282.951 551.765L284.581 567.007L286.804 574.85L289.323 579.881L291.694 582.397L294.362 583.729H297.029L299.993 581.953L303.105 577.81L305.032 572.483L306.217 564.788L306.365 483.547L305.032 449.808L313.182 432.938L318.517 424.652L320.147 424.356L334.522 431.311L350.231 434.566L364.754 434.418L379.276 430.867L392.169 425.096L407.433 415.329L440.777 386.029L455.448 376.263L459.894 372.119V370.195L457.374 367.532L444.481 360.429L426.254 353.622L409.211 349.774L399.579 348.591H387.279L374.386 350.514L358.974 355.102L349.341 360.133L342.08 365.608L329.335 379.962L319.999 396.684L313.034 416.809L302.957 436.046L301.92 436.342L306.365 394.76L326.075 314.703L327.261 304.049V289.399H328.15L334.078 297.538L342.969 306.565L350.379 312.928L359.863 318.995L373.349 325.358L390.687 330.537L401.505 331.573L408.322 330.093L411.583 326.098V306.269L410.397 299.758L404.321 282.148L419.14 285.848L435.442 287.771L459.004 287.327L466.859 285.404L470.86 283.48L473.824 279.336V274.305L470.563 264.243L464.043 252.256L457.819 243.23L444.778 229.024L466.266 223.844L481.233 218.073L489.68 213.782L500.498 206.531L504.648 202.387L507.167 198.392L507.908 195.137L502.721 186.702L490.125 176.935L474.12 169.536L455.3 164.061L472.49 148.375L484.197 134.613L487.309 129.138L488.939 123.219L488.495 119.519L485.531 115.08L478.862 110.937L465.821 107.237L440.925 106.497L420.622 110.345L428.921 95.1029L436.479 73.4979L438.109 66.099L438.554 55.8885L437.368 52.337L435.59 50.4132L433.219 49.2294L422.401 49.5254L402.691 55.0006L383.87 64.7672L375.868 70.0944L361.79 81.9327L365.346 58.4041L364.902 40.2027L361.345 22.4453L358.381 13.5665L354.084 6.61152L348.304 5.57567L340.894 8.53525L333.781 13.7145L325.186 22.2973L312.886 39.3148L306.81 51.5971L304.143 59.5879L303.253 59.7359L297.474 42.1264L289.471 26.4407L283.544 17.266L278.061 10.311L270.503 3.20801L265.761 0.692368L260.722 0.248432Z" fill="#DDD46A"/>
<path d="M330.065 383.935L319.116 403.641L321.306 421.157L337.73 429.915H360.724L381.528 425.536L396.857 415.683L417.661 403.641L428.61 389.409L451.604 372.987L447.224 366.418L418.756 355.47L391.382 351.091L364.009 356.565L346.489 366.418L330.065 383.935Z" fill="#6E906D"/>
<path d="M299.407 464.948L295.027 446.337L284.078 473.706V563.478L290.647 577.71H297.217L302.692 559.099V492.318L299.407 464.948Z" fill="#6E906D"/>
<path d="M221.666 364.229L245.755 381.745L256.704 399.262L261.084 422.252L242.47 431.01L216.191 434.294L175.678 416.778L136.26 385.029L118.741 372.987L129.691 364.229L149.4 358.755L188.818 353.281L221.666 364.229Z" fill="#6E906D"/>
<path d="M263.274 115.714L292.837 112.43L313.641 115.714L335.54 121.188L360.724 146.368L366.198 167.169V201.107L354.154 221.907L319.116 244.898L282.983 250.372L251.229 241.613L230.425 225.192L215.096 201.107L210.716 180.306L215.096 160.6L230.425 134.325L263.274 115.714Z" fill="#877367"/>
<path d="M261.273 0H263.939L266.901 0.888438L270.455 2.96146L274.305 6.21907L277.564 9.47667L280.229 12.7343L282.599 15.6957L286.153 20.7302L289.411 26.0609L292.373 31.3915L294.743 36.1298L297.705 42.3489L300.963 51.2333L303.036 57.4523L303.332 59.5254H304.221L305.109 56.86L306.886 51.8256L309.552 45.9026L312.81 39.6836L316.957 33.1684L320.807 27.8377L324.658 23.0994L325.843 21.6187H326.435L327.027 20.4341L333.247 14.215L336.506 11.5497L341.245 8.29209L344.799 6.51521L348.946 5.33063H351.315L354.277 6.51521L356.35 9.18053L358.424 13.3266L361.386 22.211L363.459 31.0953L364.94 39.9797L365.532 47.3834V56.5639L364.94 63.6714L362.57 77.5903L361.682 82.0325L364.051 79.9594L368.494 76.1095L371.752 73.4442L376.195 69.8905L383.304 65.1521L387.154 62.783L392.486 59.8215L397.225 57.4523L403.148 54.787L409.961 52.4178L416.181 50.641L422.401 49.4564L428.621 48.8641L433.36 49.1602L435.729 50.3448L437.507 52.4178L438.395 54.787L438.691 56.5639V59.8215L438.099 66.0406L436.322 74.0365L434.248 81.144L432.175 87.3631L428.621 95.6552L425.659 101.578L421.512 108.686L420.624 110.462L433.064 107.501L439.284 106.613L442.542 106.316H453.501L465.941 107.205L472.753 108.686L479.27 111.055L483.712 113.424L486.97 116.385L488.451 119.347L489.044 121.716L488.748 124.677L487.267 129.12L484.009 134.746L480.75 138.892L477.196 143.039L473.642 146.888L471.569 149.258L465.052 155.773H464.46V156.365L460.313 159.623L457.351 161.992L455.574 163.473L455.278 164.065L460.017 165.25L466.237 166.73L474.53 169.692L482.231 172.949L489.932 176.799L496.152 180.945L500.299 184.499L501.78 185.684L503.853 188.053L506.223 191.31L507.704 194.272L508 195.753L507.111 198.418L506.223 200.195L504.15 202.86L500.891 206.118L496.152 209.671L489.932 213.521L481.935 217.667L474.234 220.925L464.164 224.479L457.648 226.256L449.354 228.032L444.911 228.921V229.513L447.281 231.586L451.428 235.732L453.501 238.101L457.055 242.247L460.906 247.578L463.868 252.02L466.533 256.462L470.384 263.866L472.753 270.085L473.938 274.824V278.97L473.049 281.043L470.976 283.412L467.422 285.189L461.794 286.669L459.129 287.262L451.724 287.854H437.507L428.917 287.262L419.143 285.781L412.034 284.3L406.999 282.819L404.333 281.931L408.184 292.592L410.553 300.292L411.442 304.438L411.738 307.992V325.761L410.849 327.834L408.184 330.203L403.741 331.387L399.594 331.684L390.708 330.499L382.415 328.426L373.826 325.465L366.421 322.207L360.497 319.245L355.462 316.284L350.723 313.026L347.761 310.657L344.503 307.696L342.133 305.623L336.209 299.7L334.136 297.331L330.878 293.481L328.212 289.927V289.335H327.324L327.62 290.223V295.554L327.324 304.142L326.139 314.803L323.473 327.834L320.215 340.864L316.661 353.895L312.514 368.998L308.96 383.213L306.59 394.763L305.405 403.055L304.517 409.57L303.332 421.12L302.74 429.116L301.851 436.519L303.036 436.223L303.628 434.742L306.294 430.004L311.329 420.231L313.106 416.974L314.884 412.235L316.957 405.424L319.919 397.428L323.473 390.024L326.139 385.286L329.397 380.252L332.951 375.513L335.913 372.256L337.986 369.886L341.541 366.333L344.799 363.667L349.242 360.41L353.685 357.744L358.72 355.375L366.125 352.71L374.418 350.637L380.934 349.452L388.635 348.564H398.409L408.48 349.749L419.143 351.822L426.844 353.895L436.618 357.152L445.504 361.002L453.205 364.852L457.648 367.813L459.129 369.294L460.017 370.479V371.959L458.832 373.736L455.278 376.402L450.243 379.363L444.911 382.917L440.765 386.174L436.618 389.728L434.248 391.801L432.175 393.874L429.806 395.947L427.436 398.316L425.067 400.389L421.512 403.647L419.143 405.72L416.181 408.385L412.034 411.643L408.48 414.604L403.148 418.454L398.706 421.416L392.486 424.97L386.858 427.931L378.565 431.189L371.456 433.262L364.94 434.446L361.386 434.742H351.315L344.799 433.854L340.356 432.966L334.136 431.189L329.693 429.412L324.954 427.043L320.215 424.377L318.734 424.673L316.365 427.931L313.403 432.966L310.441 438.592L306.59 446.588L305.109 450.142L305.702 469.391L306.294 477.387L306.59 489.826V557.051L306.294 565.047L305.109 572.746L303.036 578.373L300.963 581.335L298.889 583.112L296.816 584H294.743L291.781 582.519L289.411 579.854L287.042 575.116L285.561 570.673L284.376 565.047L283.191 552.016L282.895 535.728V483.31L281.414 472.649L279.637 465.245L277.564 458.138L276.083 453.103L273.121 445.108L271.344 440.369L268.085 432.669L264.827 426.746L263.643 424.97L261.865 425.266L255.645 429.116L250.61 431.781L243.205 434.446L238.17 435.631L230.469 436.519H222.768L214.475 435.631L207.663 434.15L198.481 431.485L190.187 428.227L185.448 425.858L180.413 423.193L173.897 419.047L168.565 415.197L164.419 411.939L159.68 408.089L156.125 404.832L152.867 402.166L148.128 397.724L144.574 394.763L141.316 392.097L135.984 388.247L130.357 384.694L125.618 382.325L123.841 381.732L120.879 381.14L117.917 379.955L115.843 377.882L114.955 375.809L116.14 372.848L118.805 369.886L123.544 366.333L130.061 362.779L134.8 360.41L143.093 357.152L152.571 354.191L158.791 352.71L167.677 351.229L172.416 350.637H189.891L199.962 352.118L207.366 353.895L215.956 356.856L223.064 360.114L227.507 362.483L232.246 365.444L236.393 368.406L239.947 371.071L242.909 373.736L245.279 375.809L248.537 379.067L250.61 381.436L254.461 386.174L257.423 390.617L260.088 395.059L262.458 399.797L264.827 405.72L266.604 411.643L267.789 415.493L269.566 419.047L273.417 425.858L276.675 432.966L280.229 441.85L283.784 452.511L286.153 460.507L287.042 462.284L287.93 456.953L289.411 448.957L290.596 441.85L291.188 437.704L292.965 428.227L295.039 414.901L295.631 406.312L296.224 397.132V355.968L295.927 345.602L295.335 335.533L295.039 322.799L294.15 311.25L293.558 302.957L292.669 295.85L290.596 285.781L289.115 280.746L287.93 278.377L287.042 277.785L285.857 285.781L284.968 293.185L283.784 299.108L281.71 307.4L279.637 313.619L276.379 321.318L273.121 327.241L269.27 332.868L266.604 335.83L263.05 339.383L259.2 341.753L255.645 343.233L253.276 343.826H250.314L247.352 342.641L244.983 340.864L239.651 335.533L236.689 331.387L234.616 327.834L232.246 322.207L230.765 316.58L229.877 311.546L228.988 303.254V289.335L226.619 291.408L222.768 295.258L220.399 297.331L216.548 300.884L213.29 303.55L209.44 306.511L204.404 309.769L196.703 313.915L189.299 317.172L182.19 319.542L176.859 320.726L171.231 321.615H162.938L159.68 320.726L157.606 318.949L155.829 315.396L155.533 314.211V307.696L156.125 303.254L157.606 297.627L159.68 291.408L162.345 285.189L164.715 280.45L167.677 275.12L173.304 266.531L175.082 263.57V262.978L164.419 266.531L157.902 268.604L150.794 270.677L140.427 273.047L130.061 274.824L124.433 275.416L120.286 275.712H109.623L105.477 275.12L101.922 273.639L99.5529 271.566L98.3681 269.493V264.458L99.8491 260.016L102.219 254.686L105.773 248.467L110.216 241.951L114.362 236.621L117.028 233.659L119.694 230.402L127.691 222.406L130.061 220.333L133.022 217.667L132.43 217.075L122.656 214.706L116.732 212.929L109.327 209.968L103.403 207.302L96.8872 203.748L92.7405 200.787L88.89 197.826L83.8548 193.087L81.7814 191.014L79.4119 187.757L78.2272 185.091V181.834L79.4119 178.872L81.4853 176.207L85.0395 172.653L89.4824 169.396L93.9253 166.73L100.441 163.176L107.846 159.919L117.917 156.365L123.544 154.588L130.949 152.811L135.984 151.923L137.465 151.627L136.281 150.442L133.911 148.369L130.061 144.519L127.987 142.15L124.729 138.596L120.879 133.562L117.621 129.12L114.066 123.493L109.92 115.497L107.254 108.093L106.069 100.986L106.365 98.6166L108.142 95.9513L112.289 93.286L116.14 91.8053L122.656 90.6207L126.21 90.3245H137.169L143.982 90.9168L152.867 92.3976L161.457 94.4706L167.677 96.2475L173.897 98.6166L177.155 100.097L179.228 100.69L175.378 92.3976L172.416 85.5862L168.862 74.9249L167.084 67.5213L165.9 61.3022L165.011 52.714V48.2718L165.9 42.645L167.084 39.9797L169.454 37.9067L170.935 37.3144H175.378L182.783 38.7951L189.891 40.8682L196.407 43.5335L202.331 46.1988L207.07 48.8641L210.328 50.641L215.66 53.8986L221.287 58.0446L225.434 61.5984L227.804 63.6714L231.654 67.2252L235.504 71.0751L237.578 73.4442L239.947 75.8134L242.021 78.1826L242.613 78.4787L242.021 70.1866L241.724 63.9675V51.5294L242.317 43.2373L244.094 33.7606L245.871 26.6531L248.537 18.6572L251.203 12.7343L254.461 6.51521L256.83 3.25761L258.311 1.77688L259.792 0.592292L261.273 0ZM263.05 7.99594L261.273 10.069L257.719 16.5842L254.164 24.8763L252.091 31.9838L250.314 41.1643L249.425 48.568L249.129 53.6024V62.1907L250.018 71.9635L251.795 82.3286L253.572 90.0284L256.534 97.7282L258.311 103.947V106.316L257.126 107.797L255.942 108.686L253.276 107.797L251.795 106.316L249.425 103.059L246.167 97.7282L242.909 92.6937L239.059 87.3631L236.985 84.6978L234.32 81.7363L231.654 78.4787L228.988 75.5172L223.953 70.4828L219.806 67.2252L216.548 64.5598L211.513 61.0061L206.182 57.4523L199.369 53.6024L191.076 49.7525L186.633 48.2718L179.524 46.1988L176.266 45.6065H173.304L172.416 46.4949V51.5294L173.601 61.8945L175.378 70.1866L177.747 78.1826L181.005 86.7708L186.041 97.1359L189.299 103.355L191.964 106.909L194.63 109.278L200.554 113.128L205.885 116.978L210.328 120.531L212.698 122.604L214.771 124.677L217.437 128.231L218.622 130.008L218.918 131.193V133.858L217.733 135.931L215.956 136.819L214.179 136.523L209.44 134.154L204.997 131.193L201.146 128.231L196.703 124.677L194.334 122.604L184.263 112.535L182.19 111.351L175.378 107.797L167.084 104.54L159.976 102.17L153.756 100.394L147.536 99.2089L139.539 98.3205L131.245 98.0243L124.433 98.3205L118.805 99.2089L114.955 100.69L113.77 101.578V104.243L115.251 108.982L118.509 115.793L122.36 122.308L126.21 127.639L128.283 130.304L131.542 134.154L134.8 137.708L142.501 145.408L145.759 148.073L149.017 150.146L150.498 150.738H159.68L169.75 151.627L176.859 152.811L183.375 154.588L190.483 157.254L194.334 159.327L197.592 161.696L199.665 163.769L200.85 166.434L201.146 167.915V169.988L200.258 172.653L197.888 174.726L195.815 175.318L189.003 175.615L183.671 175.318L176.859 173.838L168.862 171.172L162.938 168.507L158.199 166.138L152.275 162.288L147.832 159.327L146.647 158.734H143.685L133.022 160.511L125.025 162.288L117.028 164.657L108.142 167.915L99.5529 172.061L92.1481 176.503L88.0015 179.761L85.9281 182.13L85.6319 183.907L87.4091 186.276L89.4824 188.645L92.7405 191.31L97.1834 194.568L104.884 199.01L113.178 203.156L121.767 206.414L131.245 208.783L139.539 210.264L142.797 210.56L146.943 208.487L149.905 206.71L157.606 203.156L163.826 200.787L170.935 199.01L175.378 198.122L184.263 197.233H187.522L192.557 197.529L197.296 198.418L201.146 200.491L202.923 202.564L203.22 203.452V207.006L201.739 209.968L198.777 212.337L192.557 215.002L188.706 216.187L181.005 217.667L172.416 218.852L168.565 219.148H156.125L149.905 218.556H146.351L141.612 220.925L136.281 225.071L132.43 228.329L130.357 230.105L128.283 232.475L124.729 236.028L121.471 240.174L118.509 243.432L114.066 249.947L111.401 254.389L106.661 263.866L106.069 265.347L106.365 267.124L107.846 267.716L109.623 268.012H119.99L130.653 266.828L141.02 265.051L151.09 262.682L162.345 259.128L169.454 256.166L178.043 252.316L183.671 249.651L189.299 246.69L196.703 242.84L202.331 239.582L208.551 236.621L213.29 233.955L217.437 232.475L220.103 232.179L221.584 233.067L222.176 234.252V237.509L220.695 240.174L216.548 242.544L209.736 245.801L203.812 249.059L198.777 252.316L194.038 255.574L190.483 258.832L183.671 265.643L177.747 273.343L175.378 276.897L173.008 280.746L168.269 290.223L165.307 298.515L163.53 304.734L162.345 310.361V313.619L164.419 314.507L167.084 314.803L176.859 313.026L183.967 310.953L191.372 307.992L196.111 305.623L200.258 303.254L204.701 300.292L208.847 297.331L212.698 294.369L216.548 290.815L222.768 284.596L224.842 282.227L227.804 278.673L231.654 272.751L234.616 267.716L239.355 259.424L241.132 256.462L243.205 254.686H246.464L248.241 255.87L249.425 258.536L248.833 261.201L247.352 264.162L244.39 269.197L242.021 273.935L239.947 278.673L237.874 284.596L236.689 291.408L236.393 295.85V301.181L236.985 307.992L238.17 314.211L240.244 321.318L243.798 328.13L247.056 332.276L248.241 333.757L251.203 335.533L251.795 335.83H253.572L256.83 334.053L260.088 331.387L262.162 329.314L266.012 323.984L269.863 316.876L272.232 311.546L274.602 303.846L276.379 296.738L277.564 288.742L278.748 271.566L279.637 268.901L280.822 267.42L283.784 265.939H286.449L288.819 267.124L291.781 269.789L294.15 273.047L296.224 277.785L298.001 283.708L299.482 290.815L300.666 298.515L301.555 306.215L302.74 325.168L303.628 342.937L303.925 352.118L304.221 367.813L305.405 366.629L306.59 361.89L308.367 355.079L311.033 346.787L314.291 334.941L316.365 326.057L318.438 314.507L319.326 304.438L319.623 300.292V290.815L319.03 283.708L317.549 276.897L314.884 269.493L313.106 264.755L312.81 262.385L313.699 260.016L315.772 258.239L317.549 258.536L320.215 260.312L323.177 265.051L329.397 277.193L332.655 282.523L336.209 287.558L338.579 290.519L341.837 294.369L343.91 296.738L349.242 302.069L357.535 308.288L364.644 312.434L368.79 314.803L374.714 317.469L383.007 320.43L388.635 321.911L396.928 323.688L399.002 323.984H402.556L404.333 322.799L404.926 321.911V312.434L403.445 303.55L401.667 296.738L398.409 287.558L394.855 280.154L393.374 278.97L385.673 276.008L380.934 274.231L375.01 271.27L368.494 267.124L364.94 264.458L361.089 261.201L357.831 258.239L355.462 255.278L352.796 251.428L351.019 247.578L350.723 245.505L351.315 242.84L352.5 241.063L354.869 239.582L355.758 239.286H358.72L363.755 240.471L369.679 242.84L374.122 245.209L377.676 247.578L382.415 251.132L385.673 254.093L388.339 256.166L390.412 258.536L393.67 262.385L396.336 265.939L399.002 270.381L400.779 272.751L402.852 273.935L415.588 276.897L424.474 278.673L435.137 279.858L444.911 280.154L454.389 279.858L460.313 278.97L464.756 277.785L466.533 276.6L466.829 275.416L464.46 269.197L460.313 260.609L457.648 256.166L453.797 250.836L450.243 246.097L446.985 242.544L446.689 241.951H446.096L445.504 240.767L440.172 235.436L436.026 232.179L433.064 230.105L432.471 229.809L411.146 229.513L402.26 228.625L396.632 227.736L389.227 225.959L385.081 224.479L380.342 221.813L378.861 220.629L376.787 217.371L376.491 216.483V213.521L377.676 211.448L380.638 209.671L385.377 208.487L389.227 207.895H397.817L402.852 208.487L411.442 210.264L420.624 213.521L425.659 215.89L431.583 219.148L434.545 220.925L435.433 221.221H441.653L448.169 220.333L459.721 217.667L467.422 215.298L473.642 212.929L481.343 209.375L486.97 206.414L492.598 202.86L496.449 199.899L500.299 196.345L500.003 194.864L496.745 191.31L493.19 188.349L488.748 185.387L484.305 182.722L478.085 179.465L469.199 175.911L461.498 173.542L453.797 171.765L447.873 170.876L445.208 171.172L440.468 173.542L433.952 177.095L426.548 180.649L420.624 183.018L410.257 186.276L401.075 188.349L393.374 189.533H391.005L387.45 188.645L383.896 186.868L382.711 185.684L381.823 183.314L382.119 180.649L383.6 177.688L385.969 175.615L390.412 172.949L395.151 170.58L403.148 167.619L408.48 166.138L415.588 164.657L422.105 163.769L432.175 162.88L441.357 162.584L444.023 161.696L447.281 159.623L452.612 155.773L457.351 152.219L461.202 148.961L465.052 145.408L468.31 142.15L470.384 139.781L473.049 136.819L476.308 132.377L479.27 127.639L481.343 123.789V121.716L479.862 120.235L473.642 117.274L467.718 115.497L463.275 114.609L456.463 113.72H444.319L434.545 114.905L427.14 116.682L418.254 119.643L414.108 121.716L410.553 124.974L407.888 127.935L405.814 130.008L403.445 132.081L401.075 134.45L398.113 136.819L391.893 140.966L384.488 144.815L380.934 146L379.453 146.296H374.714L372.345 145.112L371.16 143.335L371.456 140.373L372.641 137.116L375.603 132.97L378.268 130.6L382.415 127.639L388.635 123.789L392.782 121.42L399.594 118.162L405.814 114.905L408.776 112.832L411.146 110.166L415.885 103.059L419.735 96.5436L422.105 91.8053L424.178 87.0669L427.14 79.071L429.213 71.9635L430.99 63.9675L431.287 60.1177V57.4523L430.102 56.2677L419.439 58.0446L413.515 59.5254L405.518 62.1907L397.521 65.7444L391.301 69.002L385.377 72.5558L380.342 76.1095L376.491 79.3671L372.937 82.6248L369.975 85.2901L365.532 89.7323L363.163 92.6937L359.312 98.0243L357.239 101.282L355.462 104.54L352.796 109.278L351.019 112.535L348.353 116.385L345.687 118.755L343.022 119.347L338.875 117.274L338.283 115.497L338.579 112.535L340.06 109.574L343.91 103.355L346.576 99.2089L350.13 92.6937L352.204 87.3631L354.277 80.5517L356.35 70.4828L357.535 61.8945L357.831 58.3408V46.1988L356.943 37.3144L355.166 29.0223L353.092 21.3225L351.315 16.8803L349.538 13.3266L348.649 13.0304L345.391 14.8073L341.837 17.4726L338.579 20.1379L334.728 23.9878L332.359 26.0609L328.805 29.9108L324.362 35.8337L321.104 41.1643L318.734 45.3103L315.772 50.9371L312.514 58.9331L309.848 67.2252L308.664 71.9635L308.367 74.3327L308.071 91.8053L307.183 98.6166L305.109 102.763L302.74 103.947L300.074 103.355L298.593 101.874L297.705 99.2089V90.0284L298.001 84.1055L298.593 79.6633V71.3712L297.112 64.5598L293.558 52.4178L291.188 46.1988L287.93 39.0913L284.672 32.8722L280.822 26.6531L276.971 21.3225L274.602 18.3611L271.936 15.3996L268.678 11.8458L267.197 10.3651L264.827 8.29209L263.05 7.99594ZM396.632 128.231L393.967 129.12L389.524 131.489L384.488 134.746L381.23 137.708L380.046 138.596L380.342 139.189L385.081 136.819L388.339 135.043L393.374 131.489L397.225 128.527L396.632 128.231ZM160.864 158.142L161.161 159.03L167.381 162.288L177.451 165.842L188.41 168.211L191.372 168.803H193.445L191.964 167.323L186.337 164.361L179.228 161.696L173.897 160.215L168.269 159.03L163.234 158.438L160.864 158.142ZM427.732 170.284L422.697 171.172L418.254 171.765L409.961 173.542L402.26 175.911L394.855 178.872L391.893 180.649L391.301 181.538H396.04L400.483 180.649L410.849 177.984L417.069 175.911L425.363 172.653L428.621 170.876V170.284H427.732ZM185.744 204.933L177.155 205.525L170.342 207.006L162.938 209.079L158.199 211.152L157.014 212.041L164.715 211.744L173.897 210.856L184.56 209.079L191.964 207.302L194.334 206.414L194.038 205.822L190.187 204.933H185.744ZM388.931 215.298L386.858 215.594V216.187L391.005 218.26L397.225 219.74L405.518 221.221L414.108 222.11H419.735L418.847 221.221L414.7 219.74L408.184 217.667L402.26 216.483L393.078 215.298H388.931ZM359.608 247.282L360.793 249.651L364.94 254.093L367.902 256.759L371.752 259.72L376.195 262.682L383.6 266.531L387.747 268.604H388.339L387.747 267.124L385.969 264.755L382.711 261.201L380.046 258.832L376.195 256.166L370.864 252.613L363.163 248.17L360.793 247.282H359.608ZM390.708 356.264L381.23 357.152L372.048 358.929L366.717 360.41L360.793 362.779L356.054 365.148L352.796 367.221L349.834 369.294L345.984 372.552L343.022 375.217L341.541 376.994L340.06 378.475L335.617 384.398L332.063 390.024L328.508 396.54L324.954 404.239V404.832L326.139 404.535L329.101 401.87L332.655 398.613L340.356 392.69L343.318 390.617L348.353 387.359L352.204 384.99L358.424 381.436L363.163 379.067L369.975 376.105L379.749 372.848L387.154 371.071L393.374 369.886L397.225 369.59H400.483L402.852 370.183L404.333 371.367L404.926 372.552V374.921L403.445 376.402L400.483 376.994L390.708 378.179L383.007 379.955L377.084 381.732L371.456 383.805L361.682 388.247L356.35 391.209L350.426 395.059L345.687 398.316L340.948 402.166L337.986 404.535L335.913 406.609L333.544 408.682L325.25 416.974L325.546 418.158L328.212 419.935L334.432 423.193L341.837 425.266L348.353 426.45L350.13 426.746H363.755L370.271 425.562L379.157 422.897L385.081 420.527L390.708 417.566L396.928 413.716L402.26 409.866L406.407 406.609L410.257 403.351L413.219 400.686L417.366 397.132L420.328 394.17L422.697 392.097L425.363 389.432L427.732 387.359L430.99 384.101L434.248 381.436L438.691 377.882L444.319 373.736L447.281 371.663L446.985 370.775L441.949 368.11L436.026 365.444L428.028 362.483L422.401 360.706L410.849 358.041L403.148 356.856L395.448 356.264H390.708ZM175.082 358.337L164.419 359.521L157.014 361.002L150.202 362.779L142.797 365.444L133.615 369.59L129.764 371.959L126.802 373.44V373.736H129.468L137.169 372.848L151.386 371.663L156.125 371.367H167.381L176.266 371.959L186.929 373.44L194.334 374.921L201.146 376.698L208.847 379.067L215.363 381.436L222.472 384.398L231.062 388.544L237.282 391.801L242.317 395.059L247.648 398.613L251.499 401.574L254.757 403.943L255.942 404.535L255.645 402.759L253.276 398.316L250.018 392.986L247.352 389.432L244.094 385.582L240.54 381.732L237.282 379.067L234.32 376.402L228.988 372.552L223.361 369.294L218.622 366.925L214.179 364.852L205.885 361.89L197 359.817L189.299 358.633L186.041 358.337H175.082ZM151.386 379.363L143.982 380.252L139.539 380.548L139.835 381.436L143.093 383.509L149.313 388.247L153.46 391.801L156.422 394.467L159.68 397.132L161.753 399.205L165.011 401.87L169.158 405.424L174.785 409.57L179.821 413.124L185.448 416.677L190.78 419.639L197 422.6L204.997 425.562L211.217 427.043L220.103 428.523L223.657 428.819H229.877L236.985 427.931L242.021 426.746L248.537 424.377L252.684 422.008L257.423 419.047L257.126 417.862L254.461 414.901L252.387 412.531L245.871 407.201L239.947 403.055L235.208 400.093L227.507 395.651L221.88 392.69L211.809 388.544L202.923 385.582L192.557 382.621L183.671 380.844L171.231 379.363H151.386ZM296.816 455.176L296.224 457.546L294.15 468.799L291.781 484.199L290.892 492.491L290.004 506.114L289.707 515.886V534.247L290.004 545.205L290.892 556.458L292.077 564.454L293.854 572.45L294.743 574.523L295.631 574.82L296.52 573.339L297.705 568.897L298.593 563.566L299.482 554.089L299.778 548.759V507.002L299.185 494.268L298.889 489.233L298.297 473.834L298.001 467.615L297.705 456.657L297.408 455.176H296.816Z" fill="#090809"/>
<path d="M290.97 108.686L301.041 108.982L307.261 109.574L314.665 111.055L322.07 112.832L329.475 115.497L335.991 118.458L340.73 120.828L343.1 122.604L346.95 125.566L349.912 128.231L351.393 129.416V130.008L352.578 130.6L355.836 133.858L358.502 137.116L361.464 141.262L364.129 145.704L367.091 151.331L370.053 159.327L371.534 165.25L372.423 171.469V188.053L371.534 193.087L369.757 200.491L366.795 208.487L363.537 215.002L360.871 219.148L358.502 222.406L355.244 225.959L352.578 229.217L348.727 233.067L344.877 236.028L341.619 238.694L335.399 242.84L327.402 246.986L319.701 249.947L313.777 251.724L306.372 253.205L300.152 254.093L295.709 254.389H286.527L279.123 253.797L271.422 252.613L262.832 250.54L255.131 247.874L247.726 244.617L242.395 241.655L237.063 238.101L233.213 235.14L228.474 230.698L223.143 225.367L220.477 222.11L217.219 217.667L213.664 212.041L211.887 209.079L209.518 203.748L207.148 196.641L205.667 189.83L205.075 184.499V178.872L205.371 172.949L206.852 164.657L209.222 157.254L212.48 150.738L214.849 146.888L217.219 143.335L220.773 138.596L224.031 135.339L226.104 132.97L229.066 130.304L232.621 127.343L236.471 124.677L241.21 121.716L249.8 117.274L258.093 114.016L263.128 112.535L271.125 110.759L280.9 109.278L290.97 108.686ZM284.158 116.978L275.272 118.162L268.164 119.643L261.055 121.716L254.539 124.085L249.207 126.454L244.172 129.12L240.322 131.785L237.36 134.154L234.398 136.819L232.028 138.892L227.882 143.039L225.808 145.408L222.55 149.554L220.181 153.404L217.811 158.142L216.034 162.584L214.257 167.915L212.48 175.615L211.887 180.057V190.718L213.072 191.014L213.961 189.83L215.145 180.649L216.034 174.134L217.219 169.099L218.996 164.065L221.365 159.03L224.623 153.7L227.289 150.146L229.955 146.888L232.621 143.927L236.471 140.077L240.618 136.819L244.468 133.858L249.8 130.6L254.539 128.231L259.278 126.158L263.721 124.677L267.571 123.789L270.237 123.493L272.903 124.085L276.161 126.158L277.049 127.047L277.345 127.935L274.68 128.527L265.498 130.897L259.574 132.97L253.946 135.635L248.615 138.892L244.764 141.854L240.914 145.112L234.99 151.034L232.028 154.884L229.066 159.327L225.512 166.138L222.846 174.134L221.662 179.761L221.069 184.499V194.568L222.254 204.045L223.439 208.487L225.808 213.521L228.77 217.963L231.436 221.221L235.583 225.663L238.841 228.625L244.172 232.475L249.207 235.436L254.243 238.101L262.536 241.359L269.941 243.432L277.345 244.913L282.084 245.505L286.527 245.801H296.302L303.706 245.209L311.407 243.728L318.812 241.655L325.921 238.694L331.252 235.732L335.695 232.771L340.434 228.921L343.988 225.663L347.246 222.406L349.912 219.148L352.578 215.594L355.836 210.264L358.206 205.822L360.871 199.01L362.648 192.495L363.537 187.757L363.833 182.722V174.726L363.241 168.507L362.056 162.88L359.686 155.773L357.909 151.627L354.947 146.592L351.689 142.446L349.024 139.485L342.804 133.266L338.657 130.008L334.51 127.047L330.956 124.974L324.736 122.308L317.035 119.939L308.742 118.162L298.671 116.978H284.158Z" fill="#090809"/>
</svg>
