<?xml version="1.0" encoding="UTF-8"?>
<svg version="1.1" viewBox="0 0 2048 2048" width="548" height="548" xmlns="http://www.w3.org/2000/svg">
  <style>
    /* Standalone SVG light/dark mode (favicons don't inherit page CSS) */
    path, circle, rect, polygon, polyline, ellipse, line { fill: #000; stroke: #000; }
    @media (prefers-color-scheme: dark) {
      path, circle, rect, polygon, polyline, ellipse, line { fill: #fff; stroke: #fff; }
    }
    [fill="none"] { fill: none; }
    [stroke="none"] { stroke: none; }
  </style>

<path transform="translate(905,27)" d="m0 0h9l10 3 12 7 13 11 11 11 9 11 8 10 12 17 11 18 10 18 8 16 10 21 11 30 7 21 1 7h3l3-9 6-17 9-20 11-21 14-22 13-18 13-16 4-5h2l2-4 21-21 11-9 16-11 12-6 14-4h8l10 4 7 9 7 14 10 30 7 30 5 30 2 25v31l-2 24-8 47-3 15 8-7 15-13 11-9 15-12 24-16 13-8 18-10 16-8 20-9 23-8 21-6 21-4 21-2 16 1 8 4 6 7 3 8 1 6v11l-2 21-6 27-7 24-7 21-12 28-10 20-14 24-3 6 42-10 21-3 11-1h37l42 3 23 5 22 8 15 8 11 10 5 10 2 8-1 10-5 15-11 19-11 14-12 14-12 13-7 8-22 22h-2v2l-14 11-10 8-6 5-1 2 16 4 21 5 28 10 26 11 26 13 21 14 14 12 5 4 7 8 8 11 5 10 1 5-3 9-3 6-7 9-11 11-16 12-21 13-27 14-26 11-34 12-22 6-28 6-15 3v2l8 7 14 14 7 8 12 14 13 18 10 15 9 15 13 25 8 21 4 16v14l-3 7-7 8-12 6-19 5-9 2-25 2h-48l-29-2-33-5-24-5-17-5-9-3 13 36 8 26 3 14 1 12v60l-3 7-9 8-15 4-14 1-30-4-28-7-29-10-25-11-20-10-17-10-16-11-10-8-11-10-8-7-20-20-7-8-11-13-9-12v-2h-3l1 3v18l-1 29-4 36-9 44-11 44-12 44-14 51-12 48-8 39-4 28-3 22-4 39-2 27-3 25 4-1 2-5 9-16 17-33 6-11 6-16 7-23 10-27 12-25 9-16 11-17 12-16 10-11 7-8 12-12 11-9 15-11 15-9 17-8 25-9 28-7 22-4 26-3h33l34 4 36 7 26 7 33 11 30 13 26 13 15 10 5 5 3 4v5l-4 6-12 9-17 10-18 12-14 11-14 12-8 7-7 7-8 7-8 8-8 7-12 11-8 7-10 9-14 11-12 10-18 13-15 10-21 12-19 10-28 11-24 7-22 4-12 1h-34l-22-3-15-3-21-6-15-6-16-8-16-9-5 1-8 11-10 17-10 19-13 27-5 12 2 65 2 27 1 42v227l-1 27-4 26-7 19-7 10-7 6-7 3h-7l-10-5-8-9-8-16-5-15-4-19-4-44-1-55v-177l-5-36-6-25-7-24-5-17-10-27-6-16-11-26-11-20-4-6-6 1-21 13-17 9-25 9-17 4-26 3h-26l-28-3-23-5-31-9-28-11-16-8-17-9-22-14-18-13-14-11-16-13-12-11-11-9-16-15-12-10-11-9-18-13-19-12-16-8-6-2-10-2-10-4-7-7-3-7 4-10 9-10 16-12 22-12 16-8 28-11 32-10 21-5 30-5 16-2h59l34 5 25 6 29 10 24 11 15 8 16 10 14 10 12 9 10 9 8 7 11 11 7 8 13 16 10 15 9 15 8 16 8 20 6 20 4 13 6 12 13 23 11 24 12 30 12 36 8 27 3 6 3-18 5-27 4-24 2-14 6-32 7-45 2-29 2-31v-139l-1-35-2-34-1-43-3-39-2-28-3-24-7-34-5-17-4-8-3-2-4 27-3 25-4 20-7 28-7 21-11 26-11 20-13 19-9 10-12 12-13 8-12 5-8 2h-10l-10-4-8-6-18-18-10-14-7-12-8-19-5-19-3-17-3-28v-47l-8 7-13 13-8 7-13 12-11 9-13 10-17 11-26 14-25 11-24 8-18 4-19 3h-28l-11-3-7-6-6-12-1-4v-22l2-15 5-19 7-21 9-21 8-16 10-18 19-29 6-10v-2l-36 12-22 7-24 7-35 8-35 6-19 2-14 1h-36l-14-2-12-5-8-7-4-7v-17l5-15 8-18 12-21 15-22 14-18 9-10 9-11 27-27 8-7 10-9-2-2-33-8-20-6-25-10-20-9-22-12-14-10-13-10-17-16-7-7-8-11-4-9v-11l4-10 7-9 12-12 15-11 15-9 22-12 25-11 34-12 19-6 25-6 17-3 5-1-4-4-8-7-13-13-7-8-11-12-13-17-11-15-12-19-14-27-9-25-4-24 1-8 6-9 14-9 13-5 22-4 12-1h37l23 2 30 5 29 7 21 6 21 8 11 5 7 2-13-28-10-23-12-36-6-25-4-21-3-29v-15l3-19 4-9 8-7 5-2h15l25 5 24 7 22 9 20 9 16 9 11 6 18 11 19 14 14 12 8 7 13 12 13 13 7 8 8 8 7 8 2 1-2-28-1-21v-42l2-28 6-32 6-24 9-27 9-20 11-21 8-11 5-5 5-4zm6 27-6 7-12 22-12 28-7 24-6 31-3 25-1 17v29l3 33 6 35 6 26 10 26 6 21v8l-4 5-4 3-9-3-5-5-8-11-11-18-11-17-13-18-7-9-9-10-9-11-9-10-17-17-14-11-11-9-17-12-18-12-23-13-28-13-15-5-24-7-11-2h-10l-3 3v17l4 35 6 28 8 27 11 29 17 35 11 21 9 12 9 8 20 13 18 13 15 12 8 7 7 7 9 12 4 6 1 4v9l-4 7-6 3-6-1-16-8-15-10-13-10-15-12-8-7-34-34-7-4-23-12-28-11-24-8-21-6-21-4-27-3-28-1-23 1-19 3-13 5-4 3v9l5 16 11 23 13 22 13 18 7 9 11 13 11 12 26 26 11 9 11 7 5 2h31l34 3 24 4 22 6 24 9 13 7 11 8 7 7 4 9 1 5v7l-3 9-8 7-7 2-23 1-18-1-23-5-27-9-20-9-16-8-20-13-15-10-4-2h-10l-36 6-27 6-27 8-30 11-29 14-25 15-14 11-7 8-1 6 6 8 7 8 11 9 15 11 26 15 28 14 29 11 32 8 28 5 11 1 14-7 10-6 26-12 21-8 24-6 15-3 30-3h11l17 1 16 3 13 7 6 7 1 3v12l-5 10-10 8-21 9-13 4-26 5-29 4-13 1h-42l-21-2h-12l-16 8-18 14-13 11-7 6-7 8-12 12-11 14-10 11-15 22-9 15-16 32-2 5 1 6 5 2 6 1h35l36-4 35-6 34-8 38-12 24-10 29-13 19-9 19-10 25-13 19-11 21-10 16-9 14-5 9-1 5 3 2 4v11l-5 9-14 8-23 11-20 11-17 11-16 11-12 11-23 23-20 26-8 12-8 13-16 32-10 28-6 21-4 19v11l7 3 9 1 33-6 24-7 25-10 16-8 14-8 15-10 14-10 13-10 13-12 21-21 7-8 10-12 13-20 10-17 16-28 6-10 7-6h11l6 4 4 9-2 9-5 10-10 17-8 16-7 16-7 20-4 23-1 15v18l2 23 4 21 7 24 12 23 11 14 4 5 10 6 2 1h6l11-6 11-9 7-7 13-18 13-24 8-18 8-26 6-24 4-27 4-58 3-9 4-5 10-5h9l8 4 10 9 8 11 7 16 6 20 5 24 4 26 3 26 4 64 3 60 1 31 1 53 4-4 4-16 6-23 9-28 11-40 7-30 7-39 3-34 1-14v-32l-2-24-5-23-9-25-6-16-1-8 3-8 7-6 6 1 9 6 10 16 21 41 11 18 12 17 8 10 11 13 7 8 18 18 28 21 24 14 14 8 20 9 28 10 19 5 28 6 7 1h12l6-4 2-3v-32l-5-30-6-23-11-31-12-25-5-4-26-10-16-6-20-10-22-14-12-9-13-11-11-10-8-10-9-13-6-13-1-7 2-9 4-6 8-5 3-1h10l17 4 20 8 15 8 12 8 16 12 11 10 9 7 7 8 11 13 9 12 9 15 6 8 7 4 43 10 30 6 36 4 33 1 32-1 20-3 15-4 6-4 1-4-8-21-14-29-9-15-13-18-12-16-11-12-1-2h-2l-2-4-18-18-14-11-10-7-2-1-72-1-30-3-19-3-25-6-14-5-16-9-5-4-7-11-1-3v-10l4-7 10-6 16-4 13-2h29l17 2 29 6 31 11 17 8 20 11 10 6 3 1h21l22-3 39-9 26-8 21-8 26-12 19-10 19-12 13-10 13-12-1-5-11-12-12-10-15-10-15-9-21-11-30-12-26-8-26-6-20-3-9 1-16 8-22 12-25 12-20 8-35 11-31 7-26 4h-8l-12-3-12-6-4-4-3-8 1-9 5-10 8-7 15-9 16-8 27-10 18-5 24-5 22-3 34-3 31-1 9-3 11-7 18-13 16-12 13-11 13-12 11-11 7-8 9-10 11-15 10-16 7-13v-7l-5-5-21-10-20-6-15-3-23-3h-41l-33 4-25 6-30 10-14 7-12 11-9 10-7 7-8 7-8 8-10 8-21 14-25 13-12 4-5 1h-16l-8-4-4-6 1-10 4-11 10-14 9-8 14-10 21-13 14-8 23-11 21-11 10-7 8-9 16-24 13-22 8-16 7-16 10-27 7-24 6-27 1-13v-9l-4-4-36 6-20 5-27 9-27 12-21 11-20 12-17 12-13 11-12 11-10 9-15 15-8 10-13 18-7 11-6 11-9 16-6 11-9 13-9 8-9 2-14-7-2-6 1-10 5-10 13-21 9-14 12-22 7-18 7-23 7-34 4-29 1-12v-41l-3-30-6-28-7-26-6-15-6-12-3-1-11 6-12 9-11 9-13 13-8 7-12 13-15 20-11 18-8 14-10 19-11 27-9 28-4 16-1 8-1 59-3 23-7 14-8 4-9-2-5-5-3-9v-31l1-20 2-15v-28l-5-23-12-41-8-21-11-24-11-21-13-21-13-18-8-10-9-10-11-12-5-5-8-7zm453 405m-2 1-9 3-15 8-17 11-11 10-4 3 1 2 16-8 11-6 17-12 13-10zm-796 101 1 3 21 11 34 12 37 8 10 2h7l-5-5-19-10-24-9-18-5-19-4-17-2zm901 41-17 3-15 2-28 6-26 8-25 10-10 6-2 3h16l15-3 35-9 21-7 28-11 11-6v-2zm-817 117-29 2-23 5-25 7-16 7-4 3 26-1 31-3 36-6 25-6 8-3-1-2-13-3zm686 35-7 1v2l14 7 21 5 28 5 29 3h19l-3-3-14-5-22-7-20-4-31-4zm-99 108 4 8 14 15 10 9 13 10 15 10 25 13 14 7h2l-2-5-6-8-11-12-9-8-13-9-18-12-26-15-8-3zm97 72m8 296-32 3-31 6-18 5-20 8-16 8-11 7-10 7-13 11-10 9-5 6-5 5-15 20-12 19-12 22-12 26v2l4-1 10-9 12-11 26-20 10-7 17-11 13-8 21-12 16-8 23-10 33-11 25-6 21-4 13-1h11l8 2 5 4 2 4v8l-5 5-10 2-33 4-26 6-20 6-19 7-33 15-18 10-20 13-16 11-16 13-10 8-7 7-8 7-28 28 1 4 9 6 21 11 25 7 22 4 6 1h46l22-4 30-9 20-8 19-10 21-13 18-13 14-11 13-11 10-9 14-12 10-10 8-7 9-9 8-7 11-11 11-9 15-12 19-14 10-7-1-3-17-9-20-9-27-10-19-6-39-9-26-4-26-2zm-728 7-36 4-25 5-23 6-25 9-31 14-13 8-10 5v1h9l26-3 48-4 16-1h38l30 2 36 5 25 5 23 6 26 8 22 8 24 10 29 14 21 11 17 11 18 12 13 10 11 8 4 2-1-6-8-15-11-18-9-12-11-13-12-13-11-9-10-9-18-13-19-11-16-8-15-7-28-10-30-7-26-4-11-1zm-80 71-25 3-15 1 1 3 11 7 21 16 14 12 10 9 11 9 7 7 11 9 14 12 19 14 17 12 19 12 18 10 21 10 27 10 21 5 30 5 12 1h21l24-3 17-4 22-8 14-8 16-10-1-4-9-10-7-8-22-18-20-14-16-10-26-15-19-10-34-14-30-10-35-10-30-6-42-5zm491 256-2 8-7 38-8 52-3 28-3 46-1 33v62l1 37 3 38 4 27 6 27 3 7 3 1 3-5 4-15 3-18 3-32 1-18v-141l-2-43-1-17-2-52-1-21-1-37-1-5z" fill="#090809"/>
<path transform="translate(1014,394)" d="m0 0 34 1 21 2 25 5 25 6 25 9 22 10 16 8 8 6 13 10 10 9 5 4v2l4 2 11 11 9 11 10 14 9 15 10 19 10 27 5 20 3 21v56l-3 17-6 25-10 27-11 22-9 14-8 11-11 12-9 11-13 13-13 10-11 9-21 14-27 14-26 10-20 6-25 5-21 3-15 1h-31l-25-2-26-4-29-7-26-9-25-11-18-10-18-12-13-10-16-15-18-18-9-11-11-15-12-19-6-10-8-18-8-24-5-23-2-18v-19l1-20 5-28 8-25 11-22 8-13 8-12 12-16 11-11 7-8 10-9 12-10 13-9 16-10 29-15 28-11 17-5 27-6 33-5zm-23 28-30 4-24 5-24 7-22 8-18 8-17 9-13 9-10 8-10 9-8 7-14 14-7 8-11 14-8 13-8 16-6 15-6 18-6 26-2 15v36l4 1 3-4 4-31 3-22 4-17 6-17 8-17 11-18 9-12 9-11 9-10 13-13 14-11 13-10 18-11 16-8 16-7 15-5 13-3 9-1 9 2 11 7 3 3 1 3-9 2-31 8-20 7-19 9-18 11-13 10-13 11-20 20-10 13-10 15-12 23-9 27-4 19-2 16v34l4 32 4 15 8 17 10 15 9 11 14 15 11 10 18 13 17 10 17 9 28 11 25 7 25 5 16 2 15 1h33l25-2 26-5 25-7 24-10 18-10 15-10 16-13 12-11 11-11 9-11 9-12 11-18 8-15 9-23 6-22 3-16 1-17v-27l-2-21-4-19-8-24-6-14-10-17-11-14-9-10-21-21-14-11-14-10-12-7-21-9-26-8-28-6-34-4z" fill="#090809"/>
</svg>
