<svg xmlns="http://www.w3.org/2000/svg" width="389" height="528" viewBox="0 0 389 528" fill="none">
<style>
  :root { color: #000; }
  @media (prefers-color-scheme: dark) { :root { color: #fff; } }
</style><path d="M164.962 0.224609L160.948 3.43555L157.336 9.32227L153.857 16.6807L149.71 30.7285L147.703 44.9102L148.372 70.8652L129.374 52.6699L113.052 42.3682L101.145 37.1504L88.3008 33.9395L82.1465 34.4746L79.7383 37.1504L78.4004 42.9033L79.0693 55.4795L81.7451 67.7881L85.0898 77.8223L91.1104 90.9336L75.5908 85.582L54.7197 81.8359L39.334 82.1035L33.4473 83.3076L27.1592 86.6523L25.1523 90.3984L26.0889 97.7568L31.9756 111.27L42.0098 125.585L53.3818 137.091L34.25 141.907L26.3564 144.717L14.3154 150.604L6.42188 155.821L2.4082 159.835L0 164.116V167.729L2.80957 172.411L6.95703 176.559L16.9912 184.452L34.3838 192.479L49.3682 196.761L32.6445 213.752L21.9414 229.539L18.1953 238.771V243.854L21.1387 247.333L27.4268 249.206L46.6924 248.537L65.958 244.657L87.498 237.968L78.5342 252.551L71.4434 269.542L69.8379 277.168V284.526L71.5771 288.272L73.584 290.012L75.9922 290.681L88.9697 290.012L100.609 286.667L106.095 284.259L119.741 276.231L136.063 261.648L136.866 281.583L138.873 290.814L140.88 295.765L145.429 302.989L150.914 308.475L155.062 310.749L160.146 310.348L166.701 307.003L171.25 302.454L178.341 291.751L183.826 277.837L186.77 264.993L188.509 251.347L189.445 251.748L191.854 258.438L193.727 267.535L195.867 291.885L196.938 321.854V358.913L195.867 374.968L188.509 417.646L179.144 391.022L171.116 375.503L166.567 361.723L162.019 353.294L154.66 343.527L146.231 335.5L138.472 329.881L129.374 324.797L116.53 319.847L101.68 317.037L80.8086 317.438L67.1621 320.114L51.375 325.6L41.0732 330.951L36.9258 334.028L34.25 336.838L33.1797 340.049L35.8555 343.527L46.96 347.675L56.8604 354.364L73.3164 368.813L87.3643 379.517L101.412 387.276L109.038 390.22L123.086 393.832L138.605 394.501L150.513 392.227L157.737 389.283L165.898 384.333L167.771 384.601L171.518 391.156L177.806 407.077L183.559 427.279L184.896 436.912L185.03 498.856L186.502 512.637L188.509 519.728L190.783 524.276L192.924 526.551L195.332 527.755H197.74L200.416 526.149L203.226 522.403L204.965 517.587L206.035 510.63L206.169 437.18L204.965 406.676L212.323 391.424L217.14 383.932L218.611 383.664L231.589 389.952L245.771 392.896L258.882 392.762L271.993 389.551L283.633 384.333L297.413 375.503L327.516 349.013L340.761 340.183L344.774 336.437V334.697L342.5 332.289L330.86 325.867L314.404 319.713L299.019 316.234L290.322 315.164H279.218L267.578 316.903L253.664 321.051L244.968 325.6L238.412 330.55L226.906 343.527L218.478 358.646L212.189 376.841L203.092 394.233L202.155 394.501L206.169 356.906L223.963 284.526L225.033 274.894V261.648H225.836L231.188 269.007L239.215 277.168L245.904 282.921L254.467 288.406L266.642 294.159L282.295 298.842L292.062 299.778L298.216 298.44L301.159 294.828V276.9L300.089 271.014L294.604 255.093L307.982 258.438L322.699 260.177L343.972 259.775L351.062 258.036L354.675 256.297L357.351 252.551V248.002L354.407 238.904L348.521 228.067L342.901 219.906L331.128 207.062L350.527 202.38L364.04 197.162L371.666 193.282L381.433 186.727L385.179 182.98L387.453 179.368L388.122 176.425L383.439 168.799L372.067 159.969L357.618 153.279L340.627 148.329L356.146 134.147L366.716 121.705L369.525 116.755L370.997 111.403L370.596 108.059L367.92 104.045L361.899 100.299L350.126 96.9541L327.649 96.2852L309.32 99.7637L316.812 85.9834L323.636 66.4502L325.107 59.7607L325.509 50.5293L324.438 47.3184L322.833 45.5791L320.692 44.5088L310.926 44.7764L293.132 49.7266L276.141 58.5566L268.916 63.373L256.206 74.0762L259.417 52.8037L259.016 36.3477L255.805 20.293L253.129 12.2656L249.249 5.97754L244.031 5.04102L237.342 7.7168L230.92 12.3994L223.16 20.1592L212.056 35.5449L206.57 46.6494L204.162 53.874L203.359 54.0078L198.142 38.0869L190.917 23.9053L185.565 15.6104L180.615 9.32227L173.792 2.90039L169.511 0.625977L164.962 0.224609Z" fill="#DDD46A" />
<path d="M227.565 347.119L217.68 364.935L219.657 380.772L234.485 388.691H255.244L274.025 384.731L287.865 375.823L306.647 364.935L316.532 352.068L337.291 337.221L333.337 331.282L307.635 321.384L282.922 317.425L258.209 322.374L242.393 331.282L227.565 347.119Z" fill="#6E906D" />
<path d="M199.887 420.364L195.933 403.538L186.047 428.283V509.446L191.979 522.313H197.91L202.852 505.487V445.109L199.887 420.364Z" fill="#6E906D" />
<path d="M129.702 329.303L151.449 345.139L161.334 360.976L165.289 381.762L148.484 389.68L124.759 392.65L88.1841 376.813L52.5975 348.109L36.7812 337.221L46.6664 329.303L64.4597 324.354L100.046 319.405L129.702 329.303Z" fill="#6E906D" />
<path d="M167.266 104.618L193.956 101.649L212.737 104.618L232.508 109.567L255.244 132.333L260.186 151.139V181.822L249.313 200.629L217.68 221.414L185.059 226.363L156.392 218.445L137.61 203.598L123.771 181.822L119.817 163.016L123.771 145.2L137.61 121.445L167.266 104.618Z" fill="#877267" />
<path d="M165.459 0H167.866L170.54 0.803245L173.749 2.67748L177.225 5.62272L180.166 8.56795L182.573 11.5132L184.712 14.1907L187.921 18.7424L190.863 23.5619L193.537 28.3813L195.676 32.6653L198.35 38.288L201.291 46.3205L203.163 51.9432L203.43 53.8174H204.233L205.035 51.4077L206.639 46.856L209.046 41.501L211.987 35.8783L215.731 29.9878L219.207 25.1684L222.683 20.8844L223.753 19.5456H224.288L224.823 18.4746L230.438 12.8519L233.379 10.4422L237.658 7.49696L240.867 5.89047L244.61 4.81947H246.75L249.424 5.89047L251.295 8.3002L253.167 12.0487L255.841 20.0811L257.713 28.1136L259.05 36.146L259.585 42.8398V51.14L259.05 57.5659L256.911 70.1501L256.109 74.1663L258.248 72.2921L262.259 68.8114L265.2 66.4016L269.211 63.1886L275.629 58.9047L279.105 56.7627L283.918 54.0852L288.197 51.9432L293.545 49.5335L299.695 47.3915L305.311 45.785L310.926 44.714L316.541 44.1785L320.82 44.4462L322.959 45.5172L324.563 47.3915L325.366 49.5335L325.633 51.14V54.0852L325.098 59.7079L323.494 66.9371L321.622 73.3631L319.75 78.9858L316.541 86.4828L313.867 91.8377L310.124 98.2637L309.322 99.8702L320.552 97.1927L326.168 96.3895L329.109 96.1217H339.003L350.234 96.9249L356.384 98.2637L362.267 100.406L366.278 102.548L369.22 105.225L370.557 107.903L371.091 110.045L370.824 112.722L369.487 116.738L366.546 121.826L363.604 125.574L360.395 129.323L357.186 132.803L355.315 134.945L349.432 140.836H348.897V141.371L345.153 144.316L342.479 146.458L340.875 147.797L340.608 148.333L344.886 149.404L350.501 150.742L357.989 153.42L364.941 156.365L371.894 159.846L377.509 163.594L381.253 166.807L382.59 167.878L384.461 170.02L386.601 172.966L387.938 175.643L388.205 176.982L387.403 179.391L386.601 180.998L384.729 183.408L381.787 186.353L377.509 189.566L371.894 193.047L364.674 196.795L357.721 199.74L348.63 202.953L342.747 204.56L335.26 206.166L331.249 206.97V207.505L333.388 209.379L337.131 213.128L339.003 215.27L342.212 219.018L345.688 223.838L348.362 227.854L350.769 231.87L354.245 238.564L356.384 244.187L357.454 248.471V252.219L356.652 254.093L354.78 256.235L351.571 257.842L346.49 259.181L344.084 259.716L337.399 260.252H324.563L316.809 259.716L307.985 258.377L301.567 257.039L297.021 255.7L294.614 254.897L298.091 264.535L300.23 271.497L301.032 275.245L301.299 278.458V294.523L300.497 296.398L298.091 298.54L294.08 299.611L290.336 299.878L282.314 298.807L274.827 296.933L267.072 294.256L260.387 291.31L255.039 288.633L250.493 285.955L246.215 283.01L243.541 280.868L240.599 278.191L238.46 276.316L233.112 270.961L231.24 268.819L228.299 265.339L225.892 262.126V261.59H225.09L225.357 262.394V267.213L225.09 274.978L224.02 284.617L221.614 296.398L218.672 308.178L215.464 319.959L211.72 333.615L208.511 346.467L206.372 356.909L205.302 364.406L204.5 370.296L203.43 380.738L202.896 387.968L202.093 394.661L203.163 394.394L203.698 393.055L206.104 388.771L210.65 379.935L212.255 376.99L213.859 372.706L215.731 366.548L218.405 359.318L221.614 352.625L224.02 348.341L226.962 343.789L230.171 339.505L232.845 336.56L234.716 334.418L237.925 331.205L240.867 328.795L244.878 325.85L248.889 323.44L253.435 321.298L260.12 318.888L267.607 317.014L273.49 315.943L280.442 315.14H289.266L298.358 316.211L307.985 318.085L314.937 319.959L323.761 322.905L331.783 326.385L338.736 329.866L342.747 332.544L344.084 333.882L344.886 334.953V336.292L343.816 337.899L340.608 340.308L336.062 342.986L331.249 346.199L327.505 349.144L323.761 352.357L321.622 354.231L319.75 356.105L317.611 357.98L315.472 360.122L313.333 361.996L310.124 364.941L307.985 366.815L305.311 369.225L301.567 372.17L298.358 374.848L293.545 378.329L289.534 381.006L283.918 384.219L278.838 386.897L271.35 389.842L264.933 391.716L259.05 392.787L255.841 393.055H246.75L240.867 392.252L236.856 391.448L231.24 389.842L227.229 388.235L222.951 386.093L218.672 383.684L217.335 383.951L215.196 386.897L212.522 391.448L209.848 396.535L206.372 403.765L205.035 406.978L205.57 424.381L206.104 431.611L206.372 442.856V503.635L206.104 510.864L205.035 517.826L203.163 522.913L201.291 525.59L199.419 527.197L197.548 528H195.676L193.002 526.661L190.863 524.252L188.723 519.968L187.386 515.951L186.317 510.864L185.247 499.083L184.98 484.357V436.966L183.643 427.327L182.038 420.633L180.166 414.207L178.829 409.655L176.155 402.426L174.551 398.142L171.61 391.181L168.668 385.826L167.599 384.219L165.994 384.487L160.379 387.968L155.833 390.377L149.148 392.787L144.602 393.858L137.65 394.661H130.697L123.21 393.858L117.06 392.519L108.77 390.11L101.283 387.164L97.0045 385.022L92.4587 382.613L86.5759 378.864L81.7626 375.383L78.019 372.438L73.7406 368.957L70.5318 366.012L67.5903 363.602L63.3119 359.586L60.1031 356.909L57.1617 354.499L52.3484 351.018L47.2678 347.805L42.9894 345.663L41.385 345.128L38.7109 344.592L36.0369 343.521L34.1651 341.647L33.3629 339.773L34.4325 337.095L36.8391 334.418L41.1176 331.205L47.0004 327.992L51.2788 325.85L58.7661 322.905L67.3229 320.227L72.9384 318.888L80.9604 317.55L85.2388 317.014H101.016L110.107 318.353L116.792 319.959L124.547 322.637L130.965 325.582L134.976 327.724L139.254 330.402L142.998 333.079L146.206 335.489L148.88 337.899L151.02 339.773L153.961 342.718L155.833 344.86L159.309 349.144L161.983 353.16L164.39 357.176L166.529 361.46L168.668 366.815L170.273 372.17L171.342 375.651L172.947 378.864L176.423 385.022L179.364 391.448L182.573 399.481L185.782 409.12L187.921 416.349L188.723 417.955L189.526 413.136L190.863 405.907L191.932 399.481L192.467 395.732L194.071 387.164L195.943 375.116L196.478 367.351L197.013 359.051V321.834L196.745 312.462L196.211 303.359L195.943 291.846L195.141 281.404L194.606 273.907L193.804 267.481L191.932 258.377L190.595 253.826L189.526 251.684L188.723 251.148L187.654 258.377L186.852 265.071L185.782 270.426L183.91 277.923L182.038 283.546L179.097 290.507L176.155 295.862L172.679 300.949L170.273 303.627L167.064 306.84L163.588 308.982L160.379 310.32L158.24 310.856H155.566L152.891 309.785L150.752 308.178L145.939 303.359L143.265 299.611L141.393 296.398L139.254 291.31L137.917 286.223L137.115 281.671L136.313 274.174V261.59L134.173 263.465L130.697 266.945L128.558 268.819L125.082 272.032L122.14 274.442L118.664 277.12L114.118 280.065L107.166 283.813L100.481 286.759L94.0631 288.901L89.2499 289.972L84.1692 290.775H76.682L73.7406 289.972L71.8688 288.365L70.2644 285.152L69.9969 284.081V278.191L70.5318 274.174L71.8688 269.087L73.7406 263.465L76.1472 257.842L78.2864 253.558L80.9604 248.738L86.0411 240.974L87.6455 238.296V237.761L78.019 240.974L72.1362 242.848L65.7185 244.722L56.3595 246.864L47.0004 248.471L41.9198 249.006L38.1761 249.274H28.5497L24.806 248.738L21.5972 247.4L19.458 245.525L18.3884 243.651V239.099L19.7254 235.083L21.8646 230.264L25.0734 224.641L29.0845 218.751L32.8281 213.931L35.2347 211.254L37.6413 208.308L44.8612 201.079L47.0004 199.205L49.6744 196.795L49.1396 196.26L40.3153 194.118L34.9673 192.511L28.2823 189.834L22.9342 187.424L17.0514 184.211L13.3078 181.533L9.83154 178.856L5.28571 174.572L3.4139 172.698L1.27469 169.753L0.205078 167.343V164.398L1.27469 161.72L3.1465 159.31L6.35532 156.097L10.3663 153.152L14.3774 150.742L20.2602 147.529L26.9453 144.584L36.0369 141.371L41.1176 139.765L47.8026 138.158L52.3484 137.355L53.6854 137.087L52.6158 136.016L50.4766 134.142L47.0004 130.661L45.1286 128.519L42.1872 125.306L38.7109 120.755L35.7695 116.738L32.5607 111.651L28.8171 104.422L26.4105 97.7282L25.3408 91.3022L25.6082 89.1602L27.2127 86.7505L30.9563 84.3408L34.4325 83.002L40.3153 81.931L43.5242 81.6633H53.418L59.5683 82.1988L67.5903 83.5375L75.345 85.4118L80.9604 87.0183L86.5759 89.1602L89.5173 90.499L91.3891 91.0345L87.9129 83.5375L85.2388 77.3793L82.03 67.7404L80.4256 61.0467L79.356 55.4239L78.5538 47.6592V43.643L79.356 38.5558L80.4256 36.146L82.5648 34.2718L83.9018 33.7363H87.9129L94.5979 35.0751L101.016 36.9493L106.898 39.359L112.246 41.7688L116.525 44.1785L119.466 45.785L124.28 48.7302L129.36 52.4787L133.104 55.6917L135.243 57.5659L138.719 60.7789L142.195 64.2596L144.067 66.4016L146.206 68.5436L148.078 70.6856L148.613 70.9533L148.078 63.4564L147.811 57.8337V46.5882L148.346 39.0913L149.95 30.5233L151.554 24.0974L153.961 16.8682L156.368 11.5132L159.309 5.89047L161.448 2.94523L162.785 1.60649L164.122 0.535497L165.459 0ZM167.064 7.22921L165.459 9.10345L162.251 14.9939L159.042 22.4909L157.17 28.9168L155.566 37.217L154.763 43.9108L154.496 48.4625V56.2272L155.298 65.0629L156.903 74.4341L158.507 81.3955L161.181 88.357L162.785 93.9797V96.1217L161.716 97.4604L160.646 98.2637L158.24 97.4604L156.903 96.1217L154.763 93.1765L151.822 88.357L148.88 83.8053L145.404 78.9858L143.532 76.5761L141.126 73.8986L138.719 70.9533L136.313 68.2759L131.767 63.7241L128.023 60.7789L125.082 58.3692L120.536 55.1562L115.723 51.9432L109.572 48.4625L102.085 44.9817L98.0741 43.643L91.6565 41.7688L88.7151 41.2333H86.0411L85.2388 42.0365V46.5882L86.3085 55.9594L87.9129 63.4564L90.0521 70.6856L92.9935 78.4503L97.5393 87.8215L100.481 93.4442L102.887 96.6572L105.294 98.7992L110.642 102.28L115.455 105.761L119.466 108.974L121.605 110.848L123.477 112.722L125.884 115.935L126.954 117.542L127.221 118.613V121.022L126.151 122.897L124.547 123.7L122.943 123.432L118.664 121.29L114.653 118.613L111.177 115.935L107.166 112.722L105.027 110.848L95.9349 101.744L94.0631 100.673L87.9129 97.4604L80.4256 94.5152L74.008 92.3732L68.3925 90.7667L62.7771 89.6957L55.5573 88.8925L48.07 88.6247L41.9198 88.8925L36.8391 89.6957L33.3629 91.0345L32.2933 91.8377V94.2475L33.6303 98.5314L36.5717 104.69L40.0479 110.58L43.5242 115.4L45.396 117.809L48.3374 121.29L51.2788 124.503L58.2313 131.465L61.1727 133.874L64.1141 135.748L65.4511 136.284H73.7406L82.8322 137.087L89.2499 138.158L95.1327 139.765L101.55 142.174L105.027 144.049L107.968 146.191L109.84 148.065L110.909 150.475L111.177 151.813V153.688L110.375 156.097L108.235 157.972L106.364 158.507L100.213 158.775L95.4001 158.507L89.2499 157.168L82.03 154.759L76.682 152.349L72.4036 150.207L67.0555 146.726L63.0445 144.049L61.9749 143.513H59.3009L49.6744 145.12L42.4546 146.726L35.2347 148.868L27.2127 151.813L19.458 155.562L12.773 159.578L9.02934 162.523L7.15752 164.665L6.89012 166.272L8.49453 168.414L10.3663 170.556L13.3078 172.966L17.3188 175.911L24.2712 179.927L31.7585 183.675L39.5131 186.621L48.07 188.763L55.5573 190.101L58.4987 190.369L62.2423 188.495L64.9163 186.888L71.8688 183.675L77.4842 181.533L83.9018 179.927L87.9129 179.124L95.9349 178.32H98.8763L103.422 178.588L107.701 179.391L111.177 181.266L112.781 183.14L113.049 183.943V187.156L111.712 189.834L109.038 191.976L103.422 194.385L99.9459 195.456L92.9935 196.795L85.2388 197.866L81.7626 198.134H70.5318L64.9163 197.598H61.7075L57.4291 199.74L52.6158 203.489L49.1396 206.434L47.2678 208.041L45.396 210.183L42.1872 213.396L39.2457 217.144L36.5717 220.089L32.5607 225.98L30.1541 229.996L25.8757 238.564L25.3408 239.903L25.6082 241.509L26.9453 242.045L28.5497 242.312H37.9087L47.5352 241.241L56.8943 239.635L65.9859 237.493L76.1472 234.28L82.5648 231.602L90.3195 228.122L95.4001 225.712L100.481 223.034L107.166 219.554L112.246 216.609L117.862 213.931L122.14 211.521L125.884 210.183L128.291 209.915L129.628 210.718L130.162 211.789V214.734L128.825 217.144L125.082 219.286L118.931 222.231L113.583 225.176L109.038 228.122L104.759 231.067L101.55 234.012L95.4001 240.17L90.0521 247.132L87.9129 250.345L85.7737 253.826L81.4952 262.394L78.8212 269.89L77.2168 275.513L76.1472 280.6V283.546L78.019 284.349L80.4256 284.617L89.2499 283.01L95.6675 281.136L102.353 278.458L106.631 276.316L110.375 274.174L114.386 271.497L118.129 268.819L121.605 266.142L125.082 262.929L130.697 257.306L132.569 255.164L135.243 251.951L138.719 246.596L141.393 242.045L145.672 234.548L147.276 231.87L149.148 230.264H152.089L153.694 231.335L154.763 233.744L154.229 236.154L152.891 238.832L150.217 243.383L148.078 247.667L146.206 251.951L144.335 257.306L143.265 263.465L142.998 267.481V272.3L143.532 278.458L144.602 284.081L146.474 290.507L149.683 296.665L152.624 300.414L153.694 301.753L156.368 303.359L156.903 303.627H158.507L161.448 302.02L164.39 299.611L166.262 297.736L169.738 292.917L173.214 286.491L175.353 281.671L177.492 274.71L179.097 268.284L180.166 261.055L181.236 245.525L182.038 243.116L183.108 241.777L185.782 240.438H188.189L190.328 241.509L193.002 243.919L195.141 246.864L197.013 251.148L198.617 256.503L199.954 262.929L201.024 269.89L201.826 276.852L202.896 293.988L203.698 310.053L203.965 318.353L204.233 332.544L205.302 331.473L206.372 327.189L207.976 321.03L210.383 313.533L213.324 302.824L215.196 294.791L217.068 284.349L217.87 275.245L218.138 271.497V262.929L217.603 256.503L216.266 250.345L213.859 243.651L212.255 239.367L211.987 237.225L212.79 235.083L214.661 233.477L216.266 233.744L218.672 235.351L221.346 239.635L226.962 250.613L229.903 255.432L233.112 259.984L235.251 262.661L238.193 266.142L240.064 268.284L244.878 273.103L252.365 278.726L258.783 282.475L262.526 284.617L267.874 287.026L275.362 289.704L280.442 291.043L287.929 292.649L289.801 292.917H293.01L294.614 291.846L295.149 291.043V282.475L293.812 274.442L292.208 268.284L289.266 259.984L286.058 253.29L284.721 252.219L277.768 249.542L273.49 247.935L268.142 245.258L262.259 241.509L259.05 239.099L255.574 236.154L252.632 233.477L250.493 230.799L248.087 227.318L246.482 223.838L246.215 221.963L246.75 219.554L247.819 217.947L249.958 216.609L250.761 216.341H253.435L257.98 217.412L263.328 219.554L267.339 221.696L270.548 223.838L274.827 227.051L277.768 229.728L280.175 231.602L282.047 233.744L284.988 237.225L287.395 240.438L289.801 244.454L291.406 246.596L293.277 247.667L304.776 250.345L312.798 251.951L322.424 253.022L331.249 253.29L339.805 253.022L345.153 252.219L349.164 251.148L350.769 250.077L351.036 249.006L348.897 243.383L345.153 235.619L342.747 231.602L339.271 226.783L336.062 222.499L333.12 219.286L332.853 218.751H332.318L331.783 217.68L326.97 212.86L323.226 209.915L320.552 208.041L320.018 207.773L300.765 207.505L292.743 206.702L287.662 205.899L280.977 204.292L277.233 202.953L272.955 200.544L271.618 199.473L269.746 196.527L269.479 195.724V193.047L270.548 191.172L273.222 189.566L277.501 188.495L280.977 187.959H288.732L293.277 188.495L301.032 190.101L309.322 193.047L313.867 195.189L319.215 198.134L321.889 199.74L322.692 200.008H328.307L334.19 199.205L344.619 196.795L351.571 194.653L357.186 192.511L364.139 189.298L369.22 186.621L374.3 183.408L377.776 180.73L381.253 177.517L380.985 176.178L378.044 172.966L374.835 170.288L370.824 167.611L366.813 165.201L361.198 162.256L353.175 159.043L346.223 156.901L339.271 155.294L333.923 154.491L331.516 154.759L327.237 156.901L321.355 160.114L314.67 163.327L309.322 165.469L299.962 168.414L291.673 170.288L284.721 171.359H282.581L279.373 170.556L276.164 168.949L275.094 167.878L274.292 165.736L274.559 163.327L275.896 160.649L278.036 158.775L282.047 156.365L286.325 154.223L293.545 151.546L298.358 150.207L304.776 148.868L310.659 148.065L319.75 147.262L328.04 146.994L330.446 146.191L333.388 144.316L338.201 140.836L342.479 137.623L345.956 134.677L349.432 131.465L352.373 128.519L354.245 126.377L356.652 123.7L359.593 119.684L362.267 115.4L364.139 111.919V110.045L362.802 108.706L357.186 106.028L351.838 104.422L347.827 103.619L341.677 102.815H330.714L321.889 103.886L315.204 105.493L307.182 108.17L303.439 110.045L300.23 112.99L297.823 115.667L295.951 117.542L293.812 119.416L291.673 121.558L288.999 123.7L283.384 127.448L276.699 130.929L273.49 132L272.153 132.268H267.874L265.735 131.197L264.665 129.59L264.933 126.913L266.002 123.968L268.676 120.219L271.083 118.077L274.827 115.4L280.442 111.919L284.186 109.777L290.336 106.832L295.951 103.886L298.625 102.012L300.765 99.6024L305.043 93.1765L308.519 87.286L310.659 83.002L312.53 78.7181L315.204 71.4888L317.076 65.0629L318.681 57.8337L318.948 54.3529V51.9432L317.878 50.8722L308.252 52.4787L302.904 53.8174L295.684 56.2272L288.464 59.4402L282.849 62.3854L277.501 65.5984L272.955 68.8114L269.479 71.7566L266.27 74.7018L263.596 77.1116L259.585 81.1278L257.446 83.8053L253.969 88.6247L252.098 91.57L250.493 94.5152L248.087 98.7992L246.482 101.744L244.076 105.225L241.669 107.367L239.262 107.903L235.519 106.028L234.984 104.422L235.251 101.744L236.588 99.0669L240.064 93.4442L242.471 89.6957L245.68 83.8053L247.552 78.9858L249.424 72.8276L251.295 63.7241L252.365 55.9594L252.632 52.7465V41.7688L251.83 33.7363L250.226 26.2394L248.354 19.2779L246.75 15.2617L245.145 12.0487L244.343 11.7809L241.401 13.3874L238.193 15.7972L235.251 18.2069L231.775 21.6876L229.636 23.5619L226.427 27.0426L222.416 32.3976L219.475 37.217L217.335 40.9655L214.661 46.0527L211.72 53.2819L209.313 60.7789L208.244 65.0629L207.976 67.2049L207.709 83.002L206.907 89.1602L205.035 92.9087L202.896 93.9797L200.489 93.4442L199.152 92.1055L198.35 89.6957V81.3955L198.617 76.0406L199.152 72.0243V64.5274L197.815 58.3692L194.606 47.3915L192.467 41.7688L189.526 35.3428L186.584 29.7201L183.108 24.0974L179.632 19.2779L177.492 16.6004L175.086 13.9229L172.144 10.7099L170.807 9.3712L168.668 7.49696L167.064 7.22921ZM287.662 115.935L285.255 116.738L281.244 118.88L276.699 121.826L273.757 124.503L272.688 125.306L272.955 125.842L277.233 123.7L280.175 122.093L284.721 118.88L288.197 116.203L287.662 115.935ZM74.8102 142.978L75.0776 143.781L80.693 146.726L89.7847 149.939L99.6785 152.081L102.353 152.617H104.224L102.887 151.278L97.8067 148.6L91.3891 146.191L86.5759 144.852L81.4952 143.781L76.9494 143.245L74.8102 142.978ZM315.739 153.955L311.193 154.759L307.182 155.294L299.695 156.901L292.743 159.043L286.058 161.72L283.384 163.327L282.849 164.13H287.127L291.138 163.327L300.497 160.917L306.113 159.043L313.6 156.097L316.541 154.491V153.955H315.739ZM97.2719 185.282L89.5173 185.817L83.367 187.156L76.682 189.03L72.4036 190.905L71.334 191.708L78.2864 191.44L86.5759 190.637L96.2023 189.03L102.887 187.424L105.027 186.621L104.759 186.085L101.283 185.282H97.2719ZM280.71 194.653L278.838 194.921V195.456L282.581 197.331L288.197 198.669L295.684 200.008L303.439 200.811H308.519L307.717 200.008L303.974 198.669L298.091 196.795L292.743 195.724L284.453 194.653H280.71ZM254.237 223.57L255.306 225.712L259.05 229.728L261.724 232.138L265.2 234.815L269.211 237.493L275.896 240.974L279.64 242.848H280.175L279.64 241.509L278.036 239.367L275.094 236.154L272.688 234.012L269.211 231.602L264.398 228.389L257.446 224.373L255.306 223.57H254.237ZM282.314 322.101L273.757 322.905L265.468 324.511L260.654 325.85L255.306 327.992L251.028 330.134L248.087 332.008L245.413 333.882L241.936 336.828L239.262 339.237L237.925 340.844L236.588 342.183L232.577 347.538L229.368 352.625L226.16 358.515L222.951 365.477V366.012L224.02 365.744L226.694 363.335L229.903 360.389L236.856 355.034L239.53 353.16L244.076 350.215L247.552 348.073L253.167 344.86L257.446 342.718L263.596 340.041L272.42 337.095L279.105 335.489L284.721 334.418L288.197 334.15H291.138L293.277 334.686L294.614 335.757L295.149 336.828V338.97L293.812 340.308L291.138 340.844L282.314 341.915L275.362 343.521L270.013 345.128L264.933 347.002L256.109 351.018L251.295 353.696L245.947 357.176L241.669 360.122L237.39 363.602L234.716 365.744L232.845 367.619L230.705 369.493L223.218 376.99L223.486 378.061L225.892 379.667L231.508 382.613L238.193 384.487L244.076 385.558L245.68 385.826H257.98L263.863 384.755L271.885 382.345L277.233 380.203L282.314 377.525L287.929 374.045L292.743 370.564L296.486 367.619L299.962 364.673L302.637 362.264L306.38 359.051L309.054 356.373L311.193 354.499L313.6 352.089L315.739 350.215L318.681 347.27L321.622 344.86L325.633 341.647L330.714 337.899L333.388 336.024L333.12 335.221L328.574 332.811L323.226 330.402L316.007 327.724L310.926 326.118L300.497 323.708L293.545 322.637L286.592 322.101H282.314ZM87.6455 323.976L78.019 325.047L71.334 326.385L65.1837 327.992L58.4987 330.402L50.2092 334.15L46.733 336.292L44.059 337.631V337.899H46.4656L53.418 337.095L66.2533 336.024L70.5318 335.757H80.693L88.7151 336.292L98.3415 337.631L105.027 338.97L111.177 340.576L118.129 342.718L124.012 344.86L130.43 347.538L138.184 351.286L143.8 354.231L148.346 357.176L153.159 360.389L156.635 363.067L159.577 365.209L160.646 365.744L160.379 364.138L158.24 360.122L155.298 355.302L152.891 352.089L149.95 348.609L146.741 345.128L143.8 342.718L141.126 340.308L136.313 336.828L131.232 333.882L126.954 331.74L122.943 329.866L115.455 327.189L107.433 325.314L100.481 324.243L97.5393 323.976H87.6455ZM66.2533 342.986L59.5683 343.789L55.5573 344.057L55.8246 344.86L58.7661 346.734L64.3815 351.018L68.1251 354.231L70.7991 356.641L73.7406 359.051L75.6124 360.925L78.5538 363.335L82.2974 366.548L87.3781 370.296L91.9239 373.509L97.0045 376.722L101.818 379.4L107.433 382.077L114.653 384.755L120.268 386.093L128.291 387.432L131.499 387.7H137.115L143.532 386.897L148.078 385.826L153.961 383.684L157.705 381.542L161.983 378.864L161.716 377.793L159.309 375.116L157.437 372.974L151.554 368.154L146.206 364.406L141.928 361.728L134.976 357.712L129.895 355.034L120.803 351.286L112.781 348.609L103.422 345.931L95.4001 344.325L84.1692 342.986H66.2533ZM197.548 411.529L197.013 413.671L195.141 423.846L193.002 437.769L192.2 445.266L191.397 457.582L191.13 466.418V483.018L191.397 492.925L192.2 503.099L193.269 510.329L194.874 517.558L195.676 519.432L196.478 519.7L197.28 518.361L198.35 514.345L199.152 509.525L199.954 500.957L200.222 496.138V458.385L199.687 446.872L199.419 442.32L198.885 428.398L198.617 422.775L198.35 412.868L198.082 411.529H197.548Z" fill="currentColor" />
<path d="M192.27 98.2637L201.362 98.5314L206.977 99.0669L213.662 100.406L220.347 102.012L227.032 104.422L232.915 107.099L237.194 109.241L239.333 110.848L242.809 113.525L245.483 115.935L246.82 117.006V117.542L247.89 118.077L250.831 121.022L253.238 123.968L255.912 127.716L258.318 131.732L260.992 136.819L263.666 144.049L265.003 149.404L265.806 155.026V170.02L265.003 174.572L263.399 181.266L260.725 188.495L257.783 194.385L255.377 198.134L253.238 201.079L250.296 204.292L247.89 207.237L244.413 210.718L240.937 213.396L237.996 215.805L232.38 219.554L225.16 223.302L218.208 225.98L212.86 227.586L206.175 228.925L200.559 229.728L196.548 229.996H188.259L181.574 229.46L174.622 228.389L166.867 226.515L159.914 224.105L153.229 221.16L148.416 218.483L143.603 215.27L140.127 212.592L135.848 208.576L131.035 203.757L128.628 200.811L125.687 196.795L122.478 191.708L120.874 189.03L118.735 184.211L116.595 177.785L115.258 171.627L114.724 166.807V161.72L114.991 156.365L116.328 148.868L118.467 142.174L121.409 136.284L123.548 132.803L125.687 129.59L128.896 125.306L131.837 122.361L133.709 120.219L136.383 117.809L139.592 115.132L143.068 112.722L147.347 110.045L155.101 106.028L162.588 103.083L167.134 101.744L174.354 100.138L183.178 98.7992L192.27 98.2637ZM186.12 105.761L178.098 106.832L171.68 108.17L165.262 110.045L159.38 112.187L154.566 114.329L150.021 116.738L146.544 119.148L143.87 121.29L141.196 123.7L139.057 125.574L135.313 129.323L133.442 131.465L130.5 135.213L128.361 138.694L126.222 142.978L124.617 146.994L123.013 151.813L121.409 158.775L120.874 162.791V172.43L121.943 172.698L122.746 171.627L123.815 163.327L124.617 157.436L125.687 152.884L127.291 148.333L129.431 143.781L132.372 138.961L134.779 135.748L137.185 132.803L139.592 130.126L143.068 126.645L146.812 123.7L150.288 121.022L155.101 118.077L159.38 115.935L163.658 114.061L167.669 112.722L171.145 111.919L173.552 111.651L175.959 112.187L178.9 114.061L179.702 114.864L179.97 115.667L177.563 116.203L169.273 118.345L163.925 120.219L158.845 122.629L154.032 125.574L150.555 128.252L147.079 131.197L141.731 136.552L139.057 140.032L136.383 144.049L133.174 150.207L130.768 157.436L129.698 162.523L129.163 166.807V175.911L130.233 184.479L131.302 188.495L133.442 193.047L136.116 197.063L138.522 200.008L142.266 204.024L145.207 206.702L150.021 210.183L154.566 212.86L159.112 215.27L166.599 218.215L173.285 220.089L179.97 221.428L184.248 221.963L188.259 222.231H197.083L203.768 221.696L210.721 220.357L217.406 218.483L223.823 215.805L228.637 213.128L232.648 210.45L236.926 206.97L240.135 204.024L243.076 201.079L245.483 198.134L247.89 194.921L250.831 190.101L252.97 186.085L255.377 179.927L256.981 174.037L257.783 169.753L258.051 165.201V157.972L257.516 152.349L256.446 147.262L254.307 140.836L252.703 137.087L250.029 132.535L247.087 128.787L244.681 126.11L239.065 120.487L235.322 117.542L231.578 114.864L228.369 112.99L222.754 110.58L215.801 108.438L208.314 106.832L199.222 105.761H186.12Z" fill="currentColor" />
</svg>
