<svg width="732" height="527" viewBox="0 0 732 527" fill="none" xmlns="http://www.w3.org/2000/svg">
<path d="M155.5 521.5L123 524.5L161 512.5L192 506.5L226 500L266.5 484.5L291 460.5L309 419L315 393.5L316.5 367.5L330 342.5L346 313.5L377 276.5L409 252L436.5 234L467.5 226.5H498L528 234L549.5 248L573 260.5L575.5 269L565.5 271.5L528 263.5L485.5 257L461.5 255L428.5 263.5L395.5 284L372.5 315L360 369.5V413L372.5 444.5L390.5 472L410.5 491L440.5 495L478 498.5L538.5 506.5L572 519.5H507.5L425 524L346 527L282.5 524L222.5 519.5H198.5L172 521.5H155.5Z" fill="#877367"/>
<path d="M244 38.5L265 49L277.5 49.5L289.5 34L305.5 25L328.5 11.5L356.5 5H401.5L419.5 11.5L435.5 20.5L439 36L435.5 58L455 51.5L474 49.5H502L523 54L543 61L558.5 74.5L570.5 92V115L558.5 133.5L576 135.5L597 133.5L619.5 137.5L641 146.5L670 162.5L678.5 190.5L670 207L678.5 209L704.5 215.5L722.5 223L727 238L722.5 255.5L698.5 268.5L651.5 275.5L615.5 272L572 262L555 252.5L536 240L518.5 230.5L488 225L452.5 230.5L424.5 245L391 267L359 298L340 325.5L323 356L314.5 360L308.5 339L300.5 317.5L282.5 287L267 275.5L230 261.5L201 259.5L168 262.5L134 272L108 277.5L69.5 281.5L47 280.5L25 275L18.5 266L15.5 251L25 238L15.5 226L11 212.5V196.5L22 176L50.5 152.5L74.5 139.5L147.5 128L134.5 108V85.5L147.5 69.5L166.5 49L191.5 42L219.5 38.5H244Z" fill="#6E906D"/>
<path d="M335.5 310.5L314.5 269L309 278L292.5 257L270 228L236 208.5L206.5 201.5H186L158.5 208.5L144 217.5L137.5 223L133 230L129 237.5L127.5 251.5L137.5 247L152.5 240L179 234.5L202 232L224 240L246 249L260 257L273 271L290.5 296L304.5 327.5L313 350L322 361.5L328.5 343.5L335.5 310.5Z" fill="#877367"/>
<path d="M429 200L408 206.5L402 210.5L392.5 217L366.5 243.5L352.5 269L341 290.5L338.5 307.5L347 313.5L357 298.5L367.5 286.5L377 273L390 252.5L417 217L430 207.5L432.5 199.5L429 200Z" fill="#877367"/>
<path d="M502 432H610V453H502V432Z" fill="#DDD46A"/>
<path d="M369 0H394L411 3L424 8L434 15L440 22L443 30V45L442 50L451 47L466 44L476 43H497L518 46L534 51L550 59L559 66L567 74L573 85L575 92V108L571 119L566 127H583L606 129L628 134L646 141L660 150L670 159L676 169L679 179V193L676 202L700 207L715 213L726 221L731 229L732 232V245L726 255L715 263L705 268L690 273L667 277L653 278H639L619 276L600 271L598 270V428H611L613 430V456L610 458L529 459H497L495 457V433L498 430L509 429L508 264L488 259L481 258H458L441 262L428 267L415 274L403 283L396 289L385 303L378 314L371 328L365 346L361 366L360 377V396L362 414L367 433L376 452L386 465L397 475L412 485L419 488L463 491L500 496L525 501L555 510L572 517V519H565L536 512L504 506L463 501L450 500H437L457 507L481 513L508 518L509 520L504 521H479L456 517L435 511L419 505L405 498L386 497L371 494L357 487L349 479L345 471L343 465V459H346L353 470L362 478L372 483L386 487H389L378 478L370 470L359 454L352 438L347 419L345 404V373L348 352L354 332L361 316L369 302L379 289L394 274L411 262L428 254L448 248L464 246H479L499 249L535 259L549 261H560L570 260L562 255L540 244L522 237L501 232L493 231H473L453 235L434 242L419 250L403 260L384 274L371 286L363 294L350 311L341 325L332 342L326 357L320 377L317 394L314 416L309 437L301 455L292 468L281 480L269 489L254 497L239 502L214 508L157 518L121 525L118 524L121 521L138 515L159 509L195 501L227 494L248 487L264 478L276 467L284 456L292 440L297 425L301 404L302 396V364L298 339L292 321L286 309L279 299L270 289L260 281L246 273L230 267L213 263L204 262H189L167 265L143 271L119 278L94 283L73 285H54L33 282L21 278L12 272L7 266L5 261V253L11 241L13 236L7 229L2 219L0 209L1 195L6 182L15 169L25 159L39 149L62 137L83 130L100 126L124 123L134 122L129 116L125 107L124 103V90L128 77L137 65L146 57L162 47L181 39L202 34L209 33H230L244 35L259 40L267 44L271 42L285 31L299 22L320 12L341 5L360 1L369 0ZM368 11L343 16L325 22L306 31L294 39L285 46L277 53L281 63V77L280 79L276 80L275 72L270 62L266 64L260 73L257 78H254L256 64L260 56L261 53L246 47L229 44H211L191 48L179 52L163 60L154 66L144 75L138 85L136 92V102L140 113L147 122L151 125L172 133L182 139H184V142L161 136L144 133H132L106 136L89 140L68 147L48 157L36 166L26 175L20 182L14 194L12 202V212L16 223L20 230L25 228L36 219L55 209L73 203L84 201H107L120 204L122 206H94L74 210L59 216L44 224L33 233L29 238L39 244L51 249L66 252L73 253H87L103 251L120 246L141 238L160 231L178 227H202L216 230L232 236L245 243L257 252L269 263L280 275L292 292L301 308L307 323L311 336L314 354L316 353L327 320L332 297L339 276L347 260L354 248L361 239L370 229L380 220L393 211L403 205H406L379 232L368 246L359 260L351 276L344 294L341 306L345 302L355 288L367 275L371 269L379 253L387 241L396 229L407 216L418 205L432 194L446 185L467 175L500 163L520 154L536 145L541 140L529 142L510 149L493 158L481 166L477 167L481 161L490 153L505 143L521 136L540 131L553 128L560 118L563 110L564 106V97L561 87L553 76L543 68L526 60L511 56L497 54H471L446 59L431 64L412 73L404 74L408 69L422 59L429 51L431 47L432 35L429 27L420 19L411 15L393 11H368ZM557 138L549 144L535 154L508 168L480 180L457 191L441 201L424 215L410 229L401 240L390 255L391 257L400 249L415 239L434 229L452 223L467 220H498L518 224L537 231L556 240L584 256L590 255L592 252H597L598 260L607 263L621 266L629 267H663L685 263L700 258L711 252L718 244L720 240V234L716 228L706 221L693 216L673 212H668L660 219L647 226L640 228H636L644 221L653 215L656 211H641L621 215L603 221L608 215L622 208L638 204L664 202L667 196L668 191V184L665 174L659 165L650 157L636 149L619 143L599 139L590 138H557ZM178 237L159 241L118 256L102 260L96 261H70L52 258L37 253L25 246L21 245L17 254L19 263L25 268L35 272L49 275H82L101 272L129 265L155 257L177 253L188 252H206L225 255L242 260L252 263L247 258L236 250L220 242L205 238L198 237H178ZM516 266V428L517 429L577 428L591 427V268L585 267L573 270L565 271H546L532 269L519 266H516ZM576 436L533 437L502 438V451L605 449V436H576Z" fill="#101111"/>
<path d="M434 166H436L434 171L424 181L411 189L399 193L394 194H369L354 191L331 184L325 183H310L302 186L297 191L295 201L296 212L303 236L312 261L318 284L321 299L322 307V323L318 324L310 300L300 281L292 269L282 256L271 244V242H269L264 237L255 229L239 219L224 212L210 208L202 207H183L167 210L155 214L141 221L134 225L132 224L139 216L146 210L163 201L176 197L190 195H200L217 197L232 201L248 208L261 217L275 229L284 239L296 255L304 269L302 262L289 231L283 213L282 207V193L286 183L294 175L304 171L309 170H322L339 174L361 181L378 184H392L406 181L418 176L434 166Z" fill="#121313"/>
<path d="M332 379L334 383V416L331 439L326 455L318 471L311 481L298 494L284 503L269 510L253 515L228 520H195L196 518L231 511L252 505L270 497L282 489L293 480L302 469L309 458L316 444L322 426L328 397L331 380L332 379Z" fill="#101111"/>
</svg>
