<svg width="870" height="655" viewBox="0 0 870 655" fill="none" xmlns="http://www.w3.org/2000/svg">
<rect x="602.438" y="543.039" width="131.717" height="25.5938" fill="#DDD46A"/>
<path d="M359.5 28.5L329.5 49.5L315.699 66.1445L315.073 73.0439L315.374 77.5832L316 83L312 78L291 65.5L256.5 61.5L220.5 65.5L189.5 83L160 102L153 127.5V146.5L169 169.5H145L105 173.5L65 189L53 210.5L32 227L11 254V284L32 304.5L18 320V344.5L41.5 357L68.5 355L91 368.5L117 365L131.5 355L145 359.5L173.5 349.5L208 338H275.5L314.5 346.5L346 372.5L372.5 442L390 457.5L408 413L425.5 386L452.5 357.5L493.5 326L522 311.5L547.5 302.5L598 297.5L629 307L656.5 314L684.5 326L717 344L767 357.5L798 361L816 359L828.5 351L831.5 345.5L841.5 344L854.5 339L859.5 329.5L852.5 317L835 307L836.917 305.825L843.995 303.725L846.5 300.5L852.5 293.5L859.5 287V267.5L845.5 250.5L820 238.5V230V220L814 207.5L794.5 194L768.5 183.5L729.5 176.5L748 160.5L754 147V133.5L741.5 122.5L725.5 118L727.5 107.5L717.5 87L688.5 69L654.5 61L608 64L562.5 80.5V61L558.5 47.5L538 36.5L511 34.5L485 40.5V31L480.5 17.5L469 6L431 9L395 14.5L359.5 28.5Z" fill="#6E906D"/>
<path d="M190.146 647.641L150.988 651.237L196.773 636.851L234.124 629.658L275.09 621.866L323.887 603.283L353.406 574.511L375.094 524.759L382.323 494.188L384.13 463.018L400.396 433.046L419.674 398.28L457.025 353.922L495.58 324.55L528.714 302.971L566.065 293.979H602.814L638.96 302.971L664.864 319.755L693.179 334.74L696.191 344.931L684.142 347.928L638.96 338.337L587.753 330.544L558.836 328.147L519.075 338.337L479.315 362.913L451.603 400.078L436.542 465.415V517.565L451.603 555.329L473.29 588.298L497.388 611.076L533.534 615.871L578.716 620.067L651.611 629.658L691.974 645.243H673.298H614.26L514.858 650.638L419.674 654.235L343.165 650.638L270.873 645.243H241.956L210.027 647.641H190.146Z" fill="#877267"/>
<path d="M407.023 394.685L381.72 344.932L375.094 355.722L355.213 330.546L328.104 295.779L287.138 272.402L251.595 264.01H226.895L193.761 272.402L176.29 283.191L168.459 289.785L163.037 298.177L158.217 307.168L156.41 323.952L168.459 318.558L186.532 310.166L218.461 303.572L246.173 300.575L272.68 310.166L299.187 320.955L316.055 330.546L331.718 347.33L352.804 377.301L369.672 415.065L379.913 442.039L390.757 455.826L398.589 434.247L407.023 394.685Z" fill="#877267"/>
<path d="M519.678 262.212L494.376 270.004L487.147 274.8L475.701 282.592L444.374 314.362L427.506 344.933L413.65 370.708L410.638 391.088L420.879 398.281L432.928 380.299L445.579 365.912L457.025 349.728L472.688 325.151L505.22 282.592L520.883 271.203L523.895 261.612L519.678 262.212Z" fill="#877267"/>
<path fill-rule="evenodd" clip-rule="evenodd" d="M271.537 55.4163L282.778 58.0975L291.426 61.226L301.371 66.1419L307.857 70.6106L313.045 74.6328L315.207 76.4202L321.26 83.5709L324.288 88.4868L326.016 92.509V93.4028L324.288 92.9555L320.828 89.3806L316.937 86.2521L310.883 81.7834L304.83 78.2077L298.777 75.08L288.399 71.5043L278.454 69.2704L268.077 67.9294H249.485L236.081 69.7168L222.245 72.8453L211.435 76.4202L196.734 82.6772L185.924 88.9341L180.736 92.509L175.115 97.425L170.791 101.447L166.467 106.363L163.441 110.832L159.982 117.982L158.252 123.792V133.178L159.982 140.327L164.738 149.713L168.629 154.629L172.521 159.097L175.98 161.779L180.304 163.567L189.816 167.142L196.734 170.27L205.814 175.186L212.733 180.102L218.786 186.358L220.083 188.147V189.487L217.921 188.593L211.868 185.018L200.625 180.102L189.384 176.526L179.439 174.292L168.197 172.951L161.711 172.505H152.631L139.66 173.399L125.391 175.633L113.284 178.315L99.4483 182.337L90.3682 185.912L81.2881 189.934L72.64 194.85L67.4519 198.872L63.1279 202.894L59.6687 207.81L57.939 211.832L57.507 215.854V219.43L55.3454 220.77L47.1301 223.898L42.8061 226.133L37.1852 230.602L31.9964 235.518L28.1051 240.434L23.3491 248.478L20.7546 254.288L18.5922 261.438L18.1602 264.567V272.164L19.457 277.527L22.9163 284.677L26.8075 289.146L31.1315 292.275L37.1852 295.85L40.6437 297.191H42.8061L46.6973 292.721L51.0214 288.699L57.507 284.23L64.8575 280.208L73.0728 276.633L86.0442 272.611L98.5835 269.929L105.069 269.035L112.852 268.589H123.661L132.309 269.483L142.686 271.717L148.74 273.951L155.658 277.527L160.414 281.102L163.008 284.23L164.738 287.805V288.699L162.576 287.805L155.658 284.23L148.74 281.996L142.254 280.656L134.471 279.761H119.77L108.096 281.102L96.4211 283.783L85.1793 287.359L76.0992 290.934L70.4784 293.615L63.1279 297.637L57.0742 302.107L54.0478 305.235L52.3182 308.81L51.8862 310.151V315.961L55.3454 323.111L52.751 322.664L47.5621 319.536L42.8061 314.62L40.2116 310.151L39.7788 307.916H36.3204L30.6995 311.939L26.8075 315.961L23.7811 320.43L21.6194 324.899L20.7546 331.155L21.6194 336.518L24.2131 341.434L28.5371 345.456L33.2932 347.69L38.05 349.031L42.3733 349.479H47.9941L55.3454 348.138L65.2895 345.009L67.0191 345.456L69.1816 349.479L71.7752 352.606L77.3969 356.182L83.8825 358.416L90.8002 359.757H105.934L112.852 358.416L118.473 356.182L121.932 353.5L124.959 349.925L127.121 346.35L131.012 347.69L136.201 349.925L144.416 351.266L152.198 350.372L157.82 348.584L161.794 346.573L164.273 344.879L172.19 340.705L194.371 333.88L220.564 329.116L233.66 327.926H255.091L277.712 331.498L297.952 337.451L309.858 341.024L303.905 335.07L290.808 325.544L271.759 316.018L253.9 311.255L245.566 310.065H221.754L199.133 314.827L150.319 332.689L131.27 337.451L118.376 339.609L104.449 340.838L93.3898 339.609L84.7881 335.922L81.1017 331.006L89.2938 331.826H101.582L113.46 331.006L132.461 326.735L152.701 320.782L177.703 311.255L200.324 302.92L221.754 298.157H250.328L266.997 301.729L286.046 308.873L301.523 317.209L315.811 327.926L330.097 341.024L343.194 355.313L357.481 375.555L368.196 394.608L375.339 412.469L380.102 427.949L383.674 449.382L386.055 448.191L399.152 408.896L405.104 381.509L413.438 356.504L422.963 337.451L431.298 323.163L439.631 312.446L450.347 300.539L462.252 289.822L477.73 279.105L489.636 271.961H493.208L461.062 304.111L447.966 320.782L437.25 337.451L427.726 356.504L419.391 377.937L415.82 392.226L420.582 387.463L432.488 370.792L446.775 355.313L451.537 348.168L461.062 329.116L470.587 314.827L481.301 300.539L494.398 285.059L507.494 271.961L524.163 258.862L540.831 248.145L565.833 236.238L588.602 229.001L608.263 225.52L627.743 221.398L646.793 215.072L659.402 212.205L660.799 212.726L658.402 216.854L646.697 224.543L628.961 231.89L615.226 235.238L598.678 238.259L581.31 243.191L553.927 255.29L534.878 267.198L514.638 283.868L497.969 300.539L487.255 313.636L474.158 331.498L475.348 333.88L486.064 324.353L503.923 312.446L526.544 300.539L547.974 293.394L565.833 289.822H602.741L626.552 294.585L649.174 302.92L671.795 313.636L705.132 332.689L712.712 335.922L719.266 338.643L725.819 341.248L732.889 343.706L740.239 346.797L751.482 349.925L756.67 351.266L768.344 353.5L778.289 354.841L790.829 355.735H799.044L812.015 354.841L818.068 353.5L821.527 351.713L822.825 349.925L821.96 347.69L819.798 346.35L815.042 345.456V343.668L818.933 340.987L819.798 340.54H834.499L839.688 339.199L844.012 336.518L847.471 332.943L848.336 330.261V325.793L846.173 321.323L843.147 318.195L837.526 314.62L828.878 311.939L823.257 311.045H815.042L809.853 311.939L806.394 313.726L805.53 315.067L803.8 314.173L799.044 311.045L793.422 308.363L786.505 306.129L776.993 304.341L768.344 303.447H753.211L736.781 304.788L732.889 305.682L731.592 306.129L732.457 303L736.348 300.319L741.104 298.085L749.319 295.85L758.4 294.509L766.183 294.062H770.939L778.721 294.509L786.505 295.85L793.855 298.085L800.774 301.659L804.232 304.788L806.394 308.81V311.045H807.259L808.124 308.363L810.718 306.129L816.339 304.341L820.231 303.894H824.987L834.932 304.788L843.147 306.129L849.633 308.363L856.983 311.939L862.172 315.961L866.063 320.43L868.225 325.345L869.09 330.709L867.793 336.071L864.334 340.987L860.442 344.115L855.253 346.797L848.768 349.031L844.444 349.925L837.958 350.819L835.796 354.841L833.634 357.076L830.608 359.757L824.122 363.332L816.339 366.014L805.962 368.248L798.179 369.142H779.586L771.371 368.248L760.129 366.014L749.319 362.885L742.402 360.204L731.592 354.841L721.8 350.688V537.497H737.277L739.659 539.879V570.838L736.087 573.22L639.649 574.411H601.551L599.17 572.029V543.451L602.741 539.879L615.838 538.689L614.647 342.214L590.835 336.261L582.502 335.07H555.118L534.878 339.833L519.4 345.787L503.923 354.122L489.636 364.839L481.301 371.984L468.205 388.654L459.871 401.752L451.537 418.423L444.394 439.856L439.631 463.671L438.441 476.769V499.394L440.822 520.827L446.775 543.451L457.49 566.075L469.396 581.555L482.493 593.462L500.351 605.37L508.685 608.942L561.071 612.515L605.123 618.468L634.887 624.422L670.604 635.139L690.844 643.474V645.856H682.511L647.983 637.52L609.885 630.376L561.071 624.422L545.593 623.232H530.115L553.927 631.566L582.502 638.711L614.647 644.665L615.838 647.046L609.885 648.237H580.12L552.737 643.474L527.735 636.33L508.685 629.185L492.017 620.85L469.396 619.659L451.537 616.086L434.869 607.752L425.344 598.225L420.582 588.7L418.201 581.555V574.411H421.773L430.106 587.509L440.822 597.035L452.727 602.989L469.396 607.752H472.968L459.871 597.035L450.347 587.509L437.25 568.457L428.916 549.405L422.963 526.78L420.582 508.919V472.007L424.153 447L431.298 423.186L439.631 404.133L449.156 387.463L461.062 371.984L478.92 354.122L499.161 339.833L519.4 330.307L543.212 323.163L562.261 320.782H580.12L603.931 324.353L646.793 336.261L663.461 338.643H676.557L688.464 337.451L678.939 331.498L652.746 318.4L631.315 310.065L606.313 304.111L596.788 302.92H572.977L549.165 307.683L526.544 316.018L508.685 325.544L489.636 337.451L467.015 354.122L451.537 368.411L442.012 377.937L426.535 398.18L415.82 414.85L405.104 435.093L397.961 452.954L390.817 476.769L387.246 497.012L383.674 523.209L377.721 548.214L368.196 569.648L357.481 585.127L344.385 599.416L330.097 610.133L312.239 619.659L294.38 625.613L264.616 632.757L196.752 644.665L153.891 653L150.319 651.809L153.891 648.237L174.131 641.093L199.133 633.948L241.995 624.422L280.093 616.086L305.095 607.752L324.144 597.035L338.432 583.937L347.957 570.838L357.481 551.786L363.434 533.925L368.196 508.919L369.386 499.394V461.29L364.625 431.521L357.481 410.088L350.337 395.798L342.004 383.891L331.288 371.984L319.382 362.457L302.714 352.931L283.665 345.787L263.424 341.024L252.71 339.833H234.851L208.658 343.406L180.084 350.55L175.082 352.521L173.672 353.128L170.359 354.581L164.306 357.97L159.117 360.651L152.198 362.438L148.74 362.885H139.66L130.147 361.098L128.417 361.544L124.094 365.567L118.041 369.142L112.42 371.376L105.501 373.164L102.475 373.611H86.909L79.1265 372.27L73.9376 370.483L70.0464 368.695L65.2895 365.567L61.3983 361.992L59.2367 358.863L54.9126 359.311L49.7237 360.651L45.8325 361.098H35.0228L26.8075 359.757L19.8898 357.076L15.1338 354.395L10.8097 350.372L7.78329 345.903L6.05367 341.434L5.62086 339.199V330.709L6.48567 326.686L8.21529 322.217L12.1065 316.407L13.4041 314.62H14.269L15.1338 312.832H15.9978V311.939L23.7811 306.129L26.8075 304.341L27.2403 303.447L24.6459 303L17.7274 299.425L12.9713 296.297L7.78329 290.934L4.75605 286.912L2.16162 281.996L0.86481 277.527L0 271.27L0.432005 263.673L1.72962 256.97L5.18886 248.031L9.0801 240.881L12.9713 235.518L16.8626 231.049L22.0514 225.686L27.6723 221.217L33.2932 217.642L44.5357 211.832L46.2653 205.128L49.7237 197.978L53.183 193.509L57.939 188.593L63.5599 184.124L67.8839 180.996L74.8024 176.974L83.4497 172.951L89.9354 170.27L99.4483 167.142L110.258 164.461L121.5 162.226L134.471 160.885H158.252L156.523 159.545L151.766 155.969L147.875 151.947L143.551 145.243L140.957 137.646L140.525 134.518V126.921L141.822 120.217L143.983 113.96L146.578 108.598L150.037 103.235L153.496 98.766L158.252 93.4028H159.117V92.509L162.576 89.3806L168.197 84.4646L174.683 79.996L179.439 76.8675L186.357 72.8453L195.869 67.9294L206.246 63.4599L214.894 60.3322L225.704 57.2038L241.27 54.5225L246.026 54.0753H262.024L271.537 55.4163ZM644.412 548.214L607.503 549.405V564.884L730.134 562.503V547.023H695.607L644.412 548.214ZM624.172 537.497L625.362 538.689L696.797 537.497L713.465 536.307V346.977L706.322 345.787L692.035 349.359L682.511 350.55H659.889L643.221 348.168L627.744 344.596H624.172V537.497Z" fill="black"/>
<path d="M406.667 483.914V523.209L403.096 550.596L397.143 569.648L387.618 588.699L379.283 600.607L363.806 616.086L347.138 626.803L329.279 635.139L310.23 641.093L280.465 647.046H241.176L242.367 644.665L284.037 636.33L309.039 629.185L330.47 619.659L344.757 610.133L357.854 599.416L368.568 586.318L376.903 573.22L385.236 556.55L392.38 535.116L399.524 500.584L403.096 480.341L404.286 479.151L406.667 483.914Z" fill="black"/>
<path d="M525.724 231.474L513.818 243.381L498.341 252.907L484.054 257.671L478.101 258.861H448.336L430.478 255.289L403.094 246.954L395.951 245.763H378.092L368.567 249.335L362.614 255.289L360.233 267.197L361.424 280.295L369.758 308.873L380.473 338.641L387.616 366.028L391.188 383.889L392.379 393.416V412.468L387.616 413.659L378.092 385.081L366.186 362.457L356.662 348.167L344.756 332.687L331.659 318.399V316.017H329.278L323.325 310.063L312.61 300.538L293.56 288.63L275.701 280.295L259.033 275.532L249.509 274.341H226.888L207.838 277.913L193.552 282.676L176.884 291.012L168.549 295.775L166.168 294.583L174.502 285.058L182.836 277.913L203.076 267.197L218.554 262.434L235.222 260.052H247.128L267.368 262.434L285.226 267.197L304.275 275.532L319.753 286.248L336.421 300.538L347.137 312.445L361.424 331.497L370.948 348.167L368.567 339.832L353.09 302.919L345.946 281.485L344.756 274.341V257.671L349.517 245.763L359.042 236.237L370.948 231.474L376.901 230.283H392.379L412.619 235.046L438.811 243.381L459.051 246.954H475.72L492.388 243.381L506.675 237.427L525.724 225.52H528.105L525.724 231.474Z" fill="black"/>
<path d="M460.101 1.341L467.02 3.12847L475.667 6.7034L480.856 9.83187L485.179 13.4068L489.071 17.8763L491.665 23.2387L493.827 30.3893V32.1768L505.934 29.0483L514.582 27.7081L518.04 27.2609H527.985L537.498 28.6019L546.577 31.7303L553.064 35.3053L557.82 38.8802L562.144 42.9024L565.602 47.3719L568.629 52.7343L570.358 58.5439V68.3758L569.926 70.1641L580.736 65.6946L591.113 62.1197L603.219 58.5439L614.894 55.8628L624.407 54.0753L632.189 53.1815H652.944L664.619 54.5225L677.157 57.2038L686.67 59.885L698.776 64.8009L708.289 69.7168L716.504 75.08L721.26 79.1022L724.287 81.7834L728.178 86.6994L731.205 91.6153L733.367 96.9777L734.232 101.894V107.257L732.503 115.748H736.826L745.041 117.535L751.959 121.111L756.716 124.239L759.743 127.367L762.769 131.837L764.499 135.859L764.931 137.646V145.691L763.201 150.607L761.472 154.181L758.445 158.204L753.256 163.567L748.068 167.589L742.447 171.164L739.42 172.505V172.951L754.986 174.739L765.796 176.526L776.605 179.208L784.821 181.89L791.306 184.571L801.251 189.487L807.737 193.956L812.926 197.978V198.872L814.655 199.766V200.66H815.52V201.553H816.384L820.276 206.469L824.599 214.96L826.329 222.558L826.762 225.239V232.39L838.436 236.412L846.219 239.987L850.975 243.116L857.893 248.478L862.218 252.947L866.109 258.757L869.135 265.46L870 269.483V277.974L868.703 283.783L865.244 290.04L861.785 294.062L857.461 297.637L850.543 301.659L845.787 303.447L843.625 303.894H836.274V302.107L842.76 298.085L846.652 294.509L850.11 289.146L851.84 284.23L852.273 281.102V275.74L850.975 270.376L848.813 265.013L845.787 260.992L841.895 256.522L838.004 252.947L831.95 249.372L825.464 246.69L821.573 245.797L817.682 245.349L805.142 244.903L803.413 244.009L803.846 242.668L808.602 239.54L811.628 235.518L813.358 230.155V224.346L811.628 218.982L808.602 213.62L806.007 210.491L801.251 206.469L797.36 203.341L785.685 197.085L774.444 192.615L764.499 189.934L751.527 187.699L745.906 187.253H727.746L719.098 188.147L711.316 189.487L701.803 192.169L695.317 194.85L691.858 196.637L692.723 198.872L695.75 204.235L697.047 207.81L696.615 209.598L691.858 206.469L685.372 203.341L680.616 202.001L677.59 201.553H666.78L656.403 202.894L637.378 207.81L619.65 214.066L610.138 218.089L606.247 218.982L608.841 215.854L611.868 212.726L618.353 208.257L624.407 204.682L634.784 199.766L645.594 195.744L659.862 191.721L669.807 189.934L678.455 189.04L682.778 185.018L688.4 181.442L696.615 177.867L704.83 175.633L711.748 174.292L719.098 173.399L728.611 172.505L735.529 166.695L738.555 163.567L742.447 158.651L746.771 151.5L748.068 147.925L748.5 145.243V140.775L747.203 136.752L744.609 132.73L741.15 130.049L737.259 128.262L732.503 127.367H726.882L717.802 128.708L715.639 129.155H712.181L713.045 126.921L717.802 116.195L719.098 110.385L718.666 104.128L716.504 98.766L712.613 92.9555L708.721 88.9341L703.533 84.9119L695.75 79.996L688.832 76.4202L679.752 72.8453L669.375 69.7168L663.754 68.3758L654.674 67.0356L649.917 66.5884H632.189L620.083 67.9294L608.841 70.1641L599.328 72.398L586.357 76.4202L574.25 80.8897L565.17 84.9119L553.929 90.2743L544.848 95.1902L537.498 99.6597L530.147 104.576L524.959 108.151L523.229 108.598L524.094 105.916L527.553 101L532.741 95.1902L537.065 91.6153L543.984 86.2521L548.74 82.6772L550.901 79.996L552.199 77.314L553.496 71.0578V64.8009L552.199 59.885L549.604 54.5225L543.984 48.7121L537.498 44.2434L530.579 41.5622L524.094 40.2212L518.473 39.7747L511.122 40.2212L502.042 42.0087L484.314 47.3719L480.423 48.2656H474.802L474.37 46.4781L476.099 42.0087L476.964 38.8802L477.396 35.3053V31.2831L476.099 26.3671L473.505 21.0047H472.64V20.111L463.992 15.6415L458.371 13.8541L448.859 12.5131H438.05L428.105 13.4068L414.269 16.0888L402.162 19.2165L390.055 23.2387L377.948 28.1546L368.868 32.1768L355.032 39.3275L346.817 44.2434L338.169 50.0531L332.98 54.0753L326.062 59.885L320.441 65.6946L316.55 70.6106H316.118L315.685 66.1419L316.55 60.7787L319.576 54.5225L325.63 46.9246L332.116 40.2212L336.872 36.199L345.087 29.9429L354.6 24.1324L362.382 19.6637L373.192 14.7478L384.434 10.2791L396.973 6.25694L409.513 3.12847L421.619 0.893734L431.131 0H450.589L460.101 1.341Z" fill="black"/>
</svg>
